<svg xmlns="http://www.w3.org/2000/svg" viewBox="0 0 58.9 77.72"><defs><style>.cls-1{fill:#007493;}.cls-2{fill:#fff;}</style></defs><g id="Layer_2" data-name="Layer 2"><g id="Layer_3" data-name="Layer 3"><path class="cls-1" d="M58.9,7.63V70.08a7.64,7.64,0,0,1-7.63,7.64H7.64A7.65,7.65,0,0,1,0,70.08V7.63A7.64,7.64,0,0,1,7.64,0H51.27A7.64,7.64,0,0,1,58.9,7.63Z"/><path class="cls-2" d="M15.43,60l1,6.26,1.69-5.92H19l1.69,5.92,1-5.85a.61.61,0,0,1,.14-.29A.33.33,0,0,1,22.1,60a.48.48,0,0,1,.33.12.44.44,0,0,1,.12.32.45.45,0,0,1,0,.13l-1.13,6.28a.66.66,0,0,1-.22.4.67.67,0,0,1-.43.13.75.75,0,0,1-.4-.11.57.57,0,0,1-.24-.34l-1.53-5.47-1.52,5.47a.6.6,0,0,1-.23.34.81.81,0,0,1-.41.11.67.67,0,0,1-.43-.13.62.62,0,0,1-.23-.4l-1.19-6.69Z"/><path class="cls-2" d="M23.6,65.61a1.69,1.69,0,0,0,.33.53,1.64,1.64,0,0,0,.5.36,1.45,1.45,0,0,0,.63.13,2.67,2.67,0,0,0,.56-.06l.54-.15.19.67c-.23.09-.44.17-.64.23a2.88,2.88,0,0,1-.68.08A2.39,2.39,0,0,1,24,67.18a2.35,2.35,0,0,1-.78-.61,2.68,2.68,0,0,1-.48-.88,3.47,3.47,0,0,1-.17-1.07,3.15,3.15,0,0,1,.17-1,2.7,2.7,0,0,1,.49-.88,2.38,2.38,0,0,1,.76-.61,2.17,2.17,0,0,1,1-.23,2.06,2.06,0,0,1,1,.23,2.28,2.28,0,0,1,.72.59,2.88,2.88,0,0,1,.45.83,2.85,2.85,0,0,1,.16,1c0,.19,0,.32-.13.38a.72.72,0,0,1-.4.09H23.48A1.77,1.77,0,0,0,23.6,65.61Zm2.76-1.3a2.11,2.11,0,0,0-.11-.6,1.9,1.9,0,0,0-.28-.55,1.4,1.4,0,0,0-.44-.4,1.07,1.07,0,0,0-.59-.16,1.26,1.26,0,0,0-.64.15,1.34,1.34,0,0,0-.43.39,2.17,2.17,0,0,0-.27.55,3.46,3.46,0,0,0-.14.62Z"/><path class="cls-2" d="M27.89,59.65h.86v3a1.85,1.85,0,0,1,.68-.56,2,2,0,0,1,1.82,0,2.26,2.26,0,0,1,.71.63,2.72,2.72,0,0,1,.43.87,3.68,3.68,0,0,1,.14,1,4.07,4.07,0,0,1-.14,1,2.86,2.86,0,0,1-.42.9,2.19,2.19,0,0,1-.72.63,2.12,2.12,0,0,1-1,.24,1.87,1.87,0,0,1-.85-.2,1.6,1.6,0,0,1-.65-.59v.26a1,1,0,0,1,0,.25.43.43,0,0,1-.11.2.4.4,0,0,1-.26.08.38.38,0,0,1-.3-.13.43.43,0,0,1-.13-.31Zm.9,5.74A1.93,1.93,0,0,0,29,66a1.24,1.24,0,0,0,.46.45,1.42,1.42,0,0,0,.72.17,1.11,1.11,0,0,0,.67-.19,1.55,1.55,0,0,0,.44-.48,2.19,2.19,0,0,0,.24-.65,3.37,3.37,0,0,0,.07-.69,3.23,3.23,0,0,0-.07-.69,2.2,2.2,0,0,0-.25-.65,1.47,1.47,0,0,0-.46-.47,1.27,1.27,0,0,0-.69-.18,1.21,1.21,0,0,0-.71.19,1.32,1.32,0,0,0-.44.47,1.93,1.93,0,0,0-.23.65,3.49,3.49,0,0,0-.07.71A3.54,3.54,0,0,0,28.79,65.39Z"/><path class="cls-2" d="M33.18,62.3a.35.35,0,0,1,.13-.3.45.45,0,0,1,.31-.12.37.37,0,0,1,.29.13.46.46,0,0,1,.11.29v5h-.84Zm.15-1.85a.36.36,0,0,1,.51,0,.34.34,0,0,1,.11.25.34.34,0,0,1-.36.36.35.35,0,0,1-.25-.1.36.36,0,0,1-.11-.25A.33.33,0,0,1,33.33,60.45Z"/><path class="cls-2" d="M34.68,62.3a.38.38,0,0,1,.13-.3.42.42,0,0,1,.31-.13.37.37,0,0,1,.25.07.57.57,0,0,1,.12.18.8.8,0,0,1,0,.23v.24a1.44,1.44,0,0,1,.62-.52,1.82,1.82,0,0,1,.79-.18,2.09,2.09,0,0,1,.81.15,1.76,1.76,0,0,1,1,1.06,2.37,2.37,0,0,1,.13.81V67a.41.41,0,0,1-.43.43.4.4,0,0,1-.29-.12A.44.44,0,0,1,38,67V63.92a1.16,1.16,0,0,0-.1-.49,1.33,1.33,0,0,0-.27-.41,1.42,1.42,0,0,0-.41-.28,1.2,1.2,0,0,0-1,0,1.26,1.26,0,0,0-.4.28,1.2,1.2,0,0,0-.26.4,1.16,1.16,0,0,0-.1.49v3.41h-.84Z"/><path class="cls-2" d="M43.37,62.34a.56.56,0,0,1,0-.23.28.28,0,0,1,.12-.16.41.41,0,0,1,.27-.07.37.37,0,0,1,.29.13.46.46,0,0,1,.11.29v5h-.85v-.77a1.63,1.63,0,0,1-.63.62,2,2,0,0,1-.87.2,2,2,0,0,1-1-.24,2.22,2.22,0,0,1-.73-.63,2.91,2.91,0,0,1-.44-.88,3.5,3.5,0,0,1-.15-1,3.12,3.12,0,0,1,.16-1,2.57,2.57,0,0,1,.45-.87,2.19,2.19,0,0,1,.72-.63,2,2,0,0,1,1-.24,2,2,0,0,1,.84.18,1.9,1.9,0,0,1,.67.53A2,2,0,0,1,43.37,62.34Zm-2.86,3a2.36,2.36,0,0,0,.24.66,1.5,1.5,0,0,0,.46.48,1.19,1.19,0,0,0,.69.19,1.29,1.29,0,0,0,.74-.19A1.44,1.44,0,0,0,43.1,66a2,2,0,0,0,.22-.67,4.87,4.87,0,0,0,.06-.76,4,4,0,0,0-.06-.69,2,2,0,0,0-.23-.62A1.26,1.26,0,0,0,42,62.61a1.3,1.3,0,0,0-.7.18,1.51,1.51,0,0,0-.47.47,2,2,0,0,0-.26.65,2.8,2.8,0,0,0-.09.7A3.69,3.69,0,0,0,40.51,65.33Z"/><path class="cls-2" d="M44.86,62.32A.38.38,0,0,1,45,62a.44.44,0,0,1,.3-.12.46.46,0,0,1,.29.1.33.33,0,0,1,.14.27,2.26,2.26,0,0,1,0,.26c0,.08,0,.16,0,.25a1.25,1.25,0,0,1,.15-.31,1.63,1.63,0,0,1,.23-.29,1,1,0,0,1,.29-.22.68.68,0,0,1,.33-.09A.51.51,0,0,1,47,62a.45.45,0,0,1,.14.33.33.33,0,0,1-.11.26,1.14,1.14,0,0,1-.27.17l-.35.17a1.21,1.21,0,0,0-.36.29,1.53,1.53,0,0,0-.27.51,2.62,2.62,0,0,0-.11.82v2.76h-.85Z"/><path class="cls-2" d="M48.28,39.78h-.6V21a3,3,0,0,0-3-3v-.61A6.68,6.68,0,0,0,38,10.64H31.89a6.68,6.68,0,0,0-6.68,6.67v.61h-8.5a3,3,0,0,0-3,3V39.78h-.61a.61.61,0,0,0-.61.61v2.42a1.83,1.83,0,0,0,1.82,1.83H47.07a1.82,1.82,0,0,0,1.82-1.83V40.39a.61.61,0,0,0-.61-.61ZM26.43,17.31a5.47,5.47,0,0,1,5.46-5.46H38a5.48,5.48,0,0,1,5.47,5.46v1.22A5.48,5.48,0,0,1,38,24a.64.64,0,0,0-.43.18l-3.21,3.21V24.6a.61.61,0,0,0-.61-.61H31.89a5.47,5.47,0,0,1-5.46-5.46ZM14.89,21a1.82,1.82,0,0,1,1.82-1.82h8.53a6.7,6.7,0,0,0,6.65,6.07h1.22v3.64a.59.59,0,0,0,.37.56.62.62,0,0,0,.66-.13l4.08-4.08a6.68,6.68,0,0,0,6.39-6.06h0A1.81,1.81,0,0,1,46.46,21V39.78H14.89ZM33.71,41.6H27.64V41h6.07Zm13.36,1.82H14.28a.6.6,0,0,1-.6-.61h5.46V41.6H13.68V41H26.43v.61a1.21,1.21,0,0,0,1.21,1.21h6.07a1.22,1.22,0,0,0,1.22-1.21V41H47.68v.61H42.21v1.21h5.47a.61.61,0,0,1-.61.61Z"/><rect class="cls-2" x="29.46" y="14.89" width="10.93" height="1.21"/><rect class="cls-2" x="29.46" y="17.31" width="10.93" height="1.21"/><rect class="cls-2" x="29.46" y="19.74" width="10.93" height="1.21"/><path class="cls-2" d="M27.64,35.53a.61.61,0,0,0,.61-.61V25.81a.6.6,0,0,0-.61-.6H17.93a.6.6,0,0,0-.61.6v6.08a.6.6,0,0,0,.61.6h6.42l2.86,2.86a.64.64,0,0,0,.43.18ZM27,33.46l-2-2a.6.6,0,0,0-.43-.18H18.53V26.42H27Z"/><rect class="cls-2" x="19.75" y="28.24" width="1.21" height="1.21"/><rect class="cls-2" x="22.18" y="28.24" width="1.21" height="1.21"/><rect class="cls-2" x="24.61" y="28.24" width="1.21" height="1.21"/><rect class="cls-2" x="31.28" y="31.28" width="2.43" height="1.21"/><rect class="cls-2" x="34.93" y="31.28" width="6.07" height="1.21"/><rect class="cls-2" x="31.28" y="33.71" width="9.71" height="1.21"/><rect class="cls-2" x="31.28" y="36.14" width="9.71" height="1.21"/></g></g></svg>