<svg xmlns="http://www.w3.org/2000/svg" viewBox="0 0 58.9 77.72"><defs><style>.cls-1,.cls-3{fill:#6917f1;}.cls-2,.cls-4,.cls-6,.cls-7{fill:none;}.cls-2,.cls-3,.cls-4,.cls-6,.cls-7{stroke:#fff;}.cls-2,.cls-4,.cls-7{stroke-linejoin:round;}.cls-3,.cls-6{stroke-miterlimit:10;}.cls-4,.cls-6,.cls-7{stroke-width:1.83px;}.cls-5{fill:#fff;}.cls-7{stroke-linecap:round;}</style></defs><g id="Layer_2" data-name="Layer 2"><g id="Layer_3" data-name="Layer 3"><path class="cls-1" d="M58.9,7.63V70.08a7.64,7.64,0,0,1-7.63,7.64H7.64A7.65,7.65,0,0,1,0,70.08V7.63A7.64,7.64,0,0,1,7.64,0H51.27A7.64,7.64,0,0,1,58.9,7.63Z"/><path class="cls-2" d="M10.66,42V15.24a2.79,2.79,0,0,1,2.79-2.8H46.1a2.79,2.79,0,0,1,2.79,2.8V42"/><path class="cls-3" d="M53.22,43.15v5a1.12,1.12,0,0,1-1.12,1.12H7.44a1.12,1.12,0,0,1-1.11-1.12v-5A1.12,1.12,0,0,1,7.44,42H52.1A1.12,1.12,0,0,1,53.22,43.15Z"/><path class="cls-4" d="M36.15,26v7.14a8.81,8.81,0,0,0-6.38,2.37,8.77,8.77,0,0,0-6.37-2.37h0V26"/><path class="cls-5" d="M40.69,25l-4.54,2-6.06,2.61a.77.77,0,0,1-.63,0L23.4,27l-4.54-2a.7.7,0,0,1,0-1.29l10.6-4.57a.77.77,0,0,1,.63,0l10.6,4.57A.71.71,0,0,1,40.69,25Z"/><line class="cls-6" x1="18.43" y1="24.38" x2="18.43" y2="29.75"/><ellipse class="cls-6" cx="18.43" cy="29.49" rx="0.63" ry="0.36"/><path class="cls-6" d="M17.47,32.25l.74-1.62a.26.26,0,0,1,.44,0l.75,1.62c.05.12-.06.24-.22.24H17.69C17.53,32.49,17.42,32.37,17.47,32.25Z"/><line class="cls-7" x1="28.94" y1="45.73" x2="30.6" y2="45.73"/><path class="cls-5" d="M9.86,64.61a1.69,1.69,0,0,0,.33.53,1.64,1.64,0,0,0,.5.36,1.45,1.45,0,0,0,.63.13,2.67,2.67,0,0,0,.56-.06l.54-.15.19.67c-.23.09-.44.17-.64.23a2.88,2.88,0,0,1-.68.08,2.39,2.39,0,0,1-1.06-.22,2.35,2.35,0,0,1-.78-.61A2.68,2.68,0,0,1,9,64.69a3.47,3.47,0,0,1-.17-1.07,3.15,3.15,0,0,1,.17-1,2.7,2.7,0,0,1,.49-.88,2.38,2.38,0,0,1,.76-.61,2.17,2.17,0,0,1,1-.23,2.06,2.06,0,0,1,1,.23,2.28,2.28,0,0,1,.72.59,2.88,2.88,0,0,1,.45.83,2.85,2.85,0,0,1,.16,1c0,.19,0,.32-.13.38A.72.72,0,0,1,13,64H9.74A1.77,1.77,0,0,0,9.86,64.61Zm2.76-1.3a2.11,2.11,0,0,0-.11-.6,1.9,1.9,0,0,0-.28-.55,1.4,1.4,0,0,0-.44-.4,1.07,1.07,0,0,0-.59-.16,1.26,1.26,0,0,0-.64.15,1.34,1.34,0,0,0-.43.39,2.17,2.17,0,0,0-.27.55,3.46,3.46,0,0,0-.14.62Z"/><path class="cls-5" d="M16.64,63a.34.34,0,0,1,.27.12.37.37,0,0,1,.11.27.41.41,0,0,1-.11.28.37.37,0,0,1-.27.11H14.26V63Z"/><path class="cls-5" d="M18.05,59.46a.42.42,0,0,1,.13-.31.4.4,0,0,1,.31-.14.38.38,0,0,1,.3.13.45.45,0,0,1,.12.31v6h2.2v.8H18.49a.37.37,0,0,1-.33-.15.66.66,0,0,1-.11-.36Z"/><path class="cls-5" d="M22.13,64.61a1.69,1.69,0,0,0,.33.53,1.64,1.64,0,0,0,.5.36,1.45,1.45,0,0,0,.63.13,2.67,2.67,0,0,0,.56-.06l.54-.15.19.67c-.23.09-.44.17-.64.23a2.88,2.88,0,0,1-.68.08,2.39,2.39,0,0,1-1.06-.22,2.35,2.35,0,0,1-.78-.61,2.68,2.68,0,0,1-.48-.88,3.47,3.47,0,0,1-.17-1.07,3.15,3.15,0,0,1,.17-1,2.7,2.7,0,0,1,.49-.88,2.38,2.38,0,0,1,.76-.61,2.17,2.17,0,0,1,1-.23,2.06,2.06,0,0,1,1,.23,2.28,2.28,0,0,1,.72.59,2.88,2.88,0,0,1,.45.83,2.85,2.85,0,0,1,.16,1c0,.19,0,.32-.13.38a.72.72,0,0,1-.4.09H22A1.77,1.77,0,0,0,22.13,64.61Zm2.76-1.3a2.11,2.11,0,0,0-.11-.6,1.9,1.9,0,0,0-.28-.55,1.4,1.4,0,0,0-.44-.4,1.07,1.07,0,0,0-.59-.16,1.26,1.26,0,0,0-.64.15,1.34,1.34,0,0,0-.43.39,2.17,2.17,0,0,0-.27.55,3.46,3.46,0,0,0-.14.62Z"/><path class="cls-5" d="M30.28,61.34a.56.56,0,0,1,0-.23.28.28,0,0,1,.12-.16.41.41,0,0,1,.27-.07A.37.37,0,0,1,31,61a.46.46,0,0,1,.11.29v5h-.85v-.77a1.63,1.63,0,0,1-.63.62,2,2,0,0,1-.87.2,2,2,0,0,1-1-.24,2.22,2.22,0,0,1-.73-.63,2.91,2.91,0,0,1-.44-.88,3.5,3.5,0,0,1-.15-1,3.12,3.12,0,0,1,.16-1,2.57,2.57,0,0,1,.45-.87,2.19,2.19,0,0,1,.72-.63,2,2,0,0,1,1-.24,2,2,0,0,1,.84.18,1.9,1.9,0,0,1,.67.53A2,2,0,0,1,30.28,61.34Zm-2.86,3a2.36,2.36,0,0,0,.24.66,1.5,1.5,0,0,0,.46.48,1.19,1.19,0,0,0,.69.19,1.29,1.29,0,0,0,.74-.19A1.44,1.44,0,0,0,30,65a2,2,0,0,0,.22-.67,4.87,4.87,0,0,0,.06-.76,4,4,0,0,0-.06-.69,2,2,0,0,0-.23-.62,1.26,1.26,0,0,0-1.14-.63,1.3,1.3,0,0,0-.7.18,1.51,1.51,0,0,0-.47.47,2,2,0,0,0-.26.65,2.8,2.8,0,0,0-.09.7A3.69,3.69,0,0,0,27.42,64.33Z"/><path class="cls-5" d="M31.77,61.32a.38.38,0,0,1,.13-.3.44.44,0,0,1,.3-.12.46.46,0,0,1,.29.1.33.33,0,0,1,.14.27,2.26,2.26,0,0,1,0,.26c0,.08,0,.16,0,.25a1.25,1.25,0,0,1,.15-.31,1.63,1.63,0,0,1,.23-.29,1,1,0,0,1,.29-.22.68.68,0,0,1,.33-.09A.51.51,0,0,1,34,61a.45.45,0,0,1,.14.33.33.33,0,0,1-.11.26,1.14,1.14,0,0,1-.27.17l-.35.17a1.21,1.21,0,0,0-.36.29,1.53,1.53,0,0,0-.27.51,2.62,2.62,0,0,0-.11.82v2.76h-.85Z"/><path class="cls-5" d="M34.74,61.3a.38.38,0,0,1,.13-.3.42.42,0,0,1,.31-.13.37.37,0,0,1,.25.07.57.57,0,0,1,.12.18.8.8,0,0,1,0,.23v.24a1.44,1.44,0,0,1,.62-.52,1.82,1.82,0,0,1,.79-.18,2.09,2.09,0,0,1,.81.15,1.76,1.76,0,0,1,1,1.06,2.37,2.37,0,0,1,.13.81V66a.41.41,0,0,1-.43.43.4.4,0,0,1-.29-.12.44.44,0,0,1-.12-.3V62.92a1.16,1.16,0,0,0-.1-.49,1.33,1.33,0,0,0-.27-.41,1.42,1.42,0,0,0-.41-.28,1.2,1.2,0,0,0-1,0,1.26,1.26,0,0,0-.4.28,1.2,1.2,0,0,0-.26.4,1.16,1.16,0,0,0-.1.49v3.41h-.84Z"/><path class="cls-5" d="M39.6,61.3a.35.35,0,0,1,.13-.3.45.45,0,0,1,.31-.12.37.37,0,0,1,.29.13.46.46,0,0,1,.11.29v5H39.6Zm.15-1.85a.36.36,0,0,1,.51,0,.34.34,0,0,1,.11.25.34.34,0,0,1-.36.36.35.35,0,0,1-.25-.1.36.36,0,0,1-.11-.25A.33.33,0,0,1,39.75,59.45Z"/><path class="cls-5" d="M41.1,61.3a.38.38,0,0,1,.13-.3.42.42,0,0,1,.31-.13.37.37,0,0,1,.25.07.57.57,0,0,1,.12.18.8.8,0,0,1,0,.23v.24a1.44,1.44,0,0,1,.62-.52,1.82,1.82,0,0,1,.79-.18,2.09,2.09,0,0,1,.81.15,1.76,1.76,0,0,1,1,1.06,2.37,2.37,0,0,1,.13.81V66a.41.41,0,0,1-.43.43.4.4,0,0,1-.29-.12.44.44,0,0,1-.12-.3V62.92a1.16,1.16,0,0,0-.1-.49,1.33,1.33,0,0,0-.27-.41,1.42,1.42,0,0,0-.41-.28,1.2,1.2,0,0,0-1,0,1.26,1.26,0,0,0-.4.28,1.2,1.2,0,0,0-.26.4,1.16,1.16,0,0,0-.1.49v3.41H41.1Z"/><path class="cls-5" d="M49.78,61.4a.51.51,0,0,1,0-.25.35.35,0,0,1,.12-.19.37.37,0,0,1,.26-.08.38.38,0,0,1,.29.14.46.46,0,0,1,.11.29v4.76a2.41,2.41,0,0,1-.73,1.78,2.57,2.57,0,0,1-.8.52,2.53,2.53,0,0,1-1,.19h-.32a1.65,1.65,0,0,1-.32-.06s0,0,0,0v0c0-.13,0-.25,0-.37l0-.37a2.3,2.3,0,0,0,.64.09,1.79,1.79,0,0,0,.77-.15,1.51,1.51,0,0,0,.51-.42,1.86,1.86,0,0,0,.29-.62,3.1,3.1,0,0,0,.09-.76v-.1a.37.37,0,0,0,0-.11,1.7,1.7,0,0,1-.66.62,2,2,0,0,1-.88.2,2.06,2.06,0,0,1-1-.23,2.2,2.2,0,0,1-.71-.61,2.57,2.57,0,0,1-.43-.86,3.3,3.3,0,0,1-.15-1,3.6,3.6,0,0,1,.15-1,2.88,2.88,0,0,1,.43-.92,2.24,2.24,0,0,1,.71-.66,2,2,0,0,1,1-.26,2,2,0,0,1,.86.2,1.71,1.71,0,0,1,.67.58ZM49,65.48a1.61,1.61,0,0,0,.43-.47,2.17,2.17,0,0,0,.24-.63,3.09,3.09,0,0,0,.07-.66c0-.18,0-.36,0-.54a2.09,2.09,0,0,0-.09-.52,1.53,1.53,0,0,0-.23-.46,1.31,1.31,0,0,0-.41-.36,1.35,1.35,0,0,0-.67-.18,1.3,1.3,0,0,0-.7.18,1.35,1.35,0,0,0-.47.45,1.92,1.92,0,0,0-.26.64,2.8,2.8,0,0,0-.09.7,3.71,3.71,0,0,0,.08.73,2,2,0,0,0,.26.65,1.44,1.44,0,0,0,.48.47,1.33,1.33,0,0,0,.72.18A1.15,1.15,0,0,0,49,65.48Z"/></g></g></svg>