<svg xmlns="http://www.w3.org/2000/svg" viewBox="0 0 58.9 77.72"><defs><style>.cls-1{fill:#ffc70f;}.cls-2{fill:#fff;}</style></defs><g id="Layer_2" data-name="Layer 2"><g id="Layer_3" data-name="Layer 3"><path class="cls-1" d="M58.9,7.63V70.08a7.64,7.64,0,0,1-7.63,7.64H7.64A7.65,7.65,0,0,1,0,70.08V7.63A7.64,7.64,0,0,1,7.64,0H51.27A7.64,7.64,0,0,1,58.9,7.63Z"/><path class="cls-2" d="M46.11,40.33a2.67,2.67,0,0,0,.24-1.09v-1a2.68,2.68,0,0,0-5.36,0v1a2.63,2.63,0,0,0,.23,1.09,4,4,0,0,0-1,1,4,4,0,0,0-1-1,2.63,2.63,0,0,0,.24-1.09v-1a2.68,2.68,0,0,0-5.36,0v1a2.63,2.63,0,0,0,.23,1.09,4.16,4.16,0,0,0-1,1,4.16,4.16,0,0,0-1-1,2.8,2.8,0,0,0,.23-1.09v-1a2.68,2.68,0,0,0-5.36,0v1a2.63,2.63,0,0,0,.23,1.09,4.16,4.16,0,0,0-1,1,4.16,4.16,0,0,0-1-1,2.63,2.63,0,0,0,.23-1.09v-1a2.7,2.7,0,0,0-1.93-2.57V34.09h.69A2.1,2.1,0,0,0,26.45,32V27.12a7,7,0,0,0-3.49-6c0-.08,0-.15,0-.23v-1.4a3.5,3.5,0,0,0-7,0v1.4c0,.08,0,.15,0,.23a7.13,7.13,0,0,0-2.41,2.32,6.92,6.92,0,0,0-1.08,3.72V32a2.1,2.1,0,0,0,2.1,2.09h.69v1.58a2.68,2.68,0,0,0-2,2.58v1a2.66,2.66,0,0,0,.23,1.09,4.12,4.12,0,0,0-1.71,3.36v1.24a.7.7,0,0,0,.7.71H47.12a.71.71,0,0,0,.71-.71V43.69a4.1,4.1,0,0,0-1.72-3.36Zm-3.72-2.08a1.28,1.28,0,0,1,2.55,0v1a1.28,1.28,0,0,1-2.55,0Zm-6.92,0a1.28,1.28,0,0,1,2.55,0v1a1.28,1.28,0,0,1-2.55,0Zm-.28,3.17a2.71,2.71,0,0,0,1.56.5,2.66,2.66,0,0,0,1.55-.5,2.73,2.73,0,0,1,1.2,2.27v.54H34v-.54a2.78,2.78,0,0,1,1.2-2.27Zm-6.64-3.17a1.28,1.28,0,0,1,2.55,0v1a1.28,1.28,0,0,1-2.55,0Zm-.28,3.17a2.68,2.68,0,0,0,3.12,0,2.75,2.75,0,0,1,1.19,2.27v.54H27.07v-.54a2.78,2.78,0,0,1,1.2-2.27Zm-4.09-3.17v1a1.28,1.28,0,0,1-2.55,0v-1a1.28,1.28,0,0,1,2.55,0ZM25,32a.69.69,0,0,1-.69.69h-.69V27.82H25Zm0-5.58H23a.68.68,0,0,0-.7.7v4.17H20.18v-7a3.49,3.49,0,0,0,2.37-1.78A5.51,5.51,0,0,1,25,26.42Zm-7.61-7a2.09,2.09,0,0,1,4.17,0v1.4a2.09,2.09,0,0,1-4.17,0Zm-1,3a3.5,3.5,0,0,0,2.38,1.78v7H16.69V27.12a.68.68,0,0,0-.7-.7H14a5.53,5.53,0,0,1,2.44-3.93ZM14.6,32.69a.69.69,0,0,1-.69-.69V27.82h1.38v4.87Zm.12,5.56a1.27,1.27,0,1,1,2.54,0v1a1.27,1.27,0,1,1-2.54,0Zm4,6H13.23v-.54a2.78,2.78,0,0,1,1.2-2.27,2.68,2.68,0,0,0,3.12,0,2.73,2.73,0,0,1,1.2,2.27Zm.7-2.86a4.16,4.16,0,0,0-1-1,2.63,2.63,0,0,0,.23-1.09v-1a2.68,2.68,0,0,0-2-2.58v-3h5.57v2.95a2.69,2.69,0,0,0-2,2.6v1a2.63,2.63,0,0,0,.23,1.09,4.16,4.16,0,0,0-1,1Zm.7,2.32a2.78,2.78,0,0,1,1.2-2.27,2.68,2.68,0,0,0,3.12,0,2.76,2.76,0,0,1,1.2,2.27v.54H20.15Zm26.27.54H40.91v-.54a2.78,2.78,0,0,1,1.2-2.27,2.67,2.67,0,0,0,3.11,0,2.73,2.73,0,0,1,1.2,2.27Z"/><path class="cls-2" d="M45.72,9.64H30a2.1,2.1,0,0,0-2.1,2.1v4.55l-2.1,1.22a1.33,1.33,0,0,0-.53.52,1.39,1.39,0,0,0,.52,1.91l2.11,1.22v4.55A2.1,2.1,0,0,0,30,27.82H45.72a2.11,2.11,0,0,0,2.11-2.11v-14a2.11,2.11,0,0,0-2.11-2.1Zm.7,16.07a.7.7,0,0,1-.7.71H30a.71.71,0,0,1-.7-.71V20.76a.68.68,0,0,0-.35-.61l-2.46-1.42h0l2.45-1.42a.71.71,0,0,0,.35-.61v-5A.71.71,0,0,1,30,11H45.72a.7.7,0,0,1,.7.7Z"/><path class="cls-2" d="M44.31,13.81H34.53a.7.7,0,0,0,0,1.4h9.78a.7.7,0,1,0,0-1.4Z"/><path class="cls-2" d="M44.31,16.62H31.37a.7.7,0,0,0-.7.7.7.7,0,0,0,.7.71H44.31a.7.7,0,0,0,.7-.71.7.7,0,0,0-.7-.7Z"/><path class="cls-2" d="M44.31,19.43H31.37a.71.71,0,0,0,0,1.41H44.31a.71.71,0,0,0,0-1.41Z"/><path class="cls-2" d="M37.84,22.24H31.37a.7.7,0,0,0-.7.71.7.7,0,0,0,.7.7h6.47a.7.7,0,0,0,.7-.7.7.7,0,0,0-.7-.71Z"/><path class="cls-2" d="M31.37,15.21a.7.7,0,0,0,0-1.4h0a.7.7,0,1,0,0,1.4Z"/><path class="cls-2" d="M10.07,60.08a8.24,8.24,0,0,0,1.11,0l1.11,0a2.36,2.36,0,0,1,.8.13,2.11,2.11,0,0,1,.68.36,2,2,0,0,1,.51.57,2.27,2.27,0,0,1,.3.75,2,2,0,0,1,0,.45,2.24,2.24,0,0,1-.18.91A2.2,2.2,0,0,1,14,64a2.43,2.43,0,0,1-.74.46,2.53,2.53,0,0,1-.91.16H10.93V67a.45.45,0,0,1-.12.31.38.38,0,0,1-.3.13.44.44,0,0,1-.44-.44Zm2.2,3.74a1.56,1.56,0,0,0,.57-.11,1.75,1.75,0,0,0,.48-.32,1.42,1.42,0,0,0,.43-1,1.43,1.43,0,0,0-.12-.58,1.46,1.46,0,0,0-1.37-.9H11v3Z"/><path class="cls-2" d="M15.44,62.32a.38.38,0,0,1,.13-.3.44.44,0,0,1,.3-.12.46.46,0,0,1,.29.1.33.33,0,0,1,.14.27,2.26,2.26,0,0,1,0,.26c0,.08,0,.16,0,.25a1.25,1.25,0,0,1,.15-.31,1.63,1.63,0,0,1,.23-.29,1,1,0,0,1,.29-.22.68.68,0,0,1,.33-.09.51.51,0,0,1,.35.13.45.45,0,0,1,.14.33.33.33,0,0,1-.11.26,1.14,1.14,0,0,1-.27.17l-.35.17a1.21,1.21,0,0,0-.36.29,1.53,1.53,0,0,0-.27.51,2.62,2.62,0,0,0-.11.82v2.76h-.85Z"/><path class="cls-2" d="M18.63,65.61a1.82,1.82,0,0,0,.33.53,1.64,1.64,0,0,0,.5.36,1.45,1.45,0,0,0,.63.13,2.67,2.67,0,0,0,.56-.06c.19,0,.37-.09.54-.15l.19.67c-.23.09-.44.17-.64.23a2.88,2.88,0,0,1-.68.08A2.39,2.39,0,0,1,19,67.18a2.35,2.35,0,0,1-.78-.61,2.68,2.68,0,0,1-.48-.88,3.47,3.47,0,0,1-.17-1.07,3.15,3.15,0,0,1,.17-1,2.7,2.7,0,0,1,.49-.88,2.38,2.38,0,0,1,.76-.61,2.17,2.17,0,0,1,1-.23,2.06,2.06,0,0,1,1,.23,2.28,2.28,0,0,1,.72.59,2.88,2.88,0,0,1,.45.83,2.85,2.85,0,0,1,.16,1c0,.19,0,.32-.13.38a.72.72,0,0,1-.4.09H18.51A1.77,1.77,0,0,0,18.63,65.61Zm2.76-1.3a2.11,2.11,0,0,0-.11-.6,1.9,1.9,0,0,0-.28-.55,1.4,1.4,0,0,0-.44-.4A1.07,1.07,0,0,0,20,62.6a1.26,1.26,0,0,0-.64.15,1.34,1.34,0,0,0-.43.39,2.17,2.17,0,0,0-.27.55,3.46,3.46,0,0,0-.14.62Z"/><path class="cls-2" d="M23.12,66l.36.26a3,3,0,0,0,.33.21,1.35,1.35,0,0,0,.35.14,2,2,0,0,0,.45,0,1.63,1.63,0,0,0,.36,0,1,1,0,0,0,.33-.15,1.18,1.18,0,0,0,.25-.25.6.6,0,0,0,.1-.35.59.59,0,0,0-.21-.46,2.26,2.26,0,0,0-.53-.32c-.21-.1-.44-.19-.69-.28a4.36,4.36,0,0,1-.69-.31A2.14,2.14,0,0,1,23,64a1,1,0,0,1-.22-.67,1.19,1.19,0,0,1,.17-.63,1.51,1.51,0,0,1,.42-.45A1.73,1.73,0,0,1,24,62a2,2,0,0,1,.64-.1,3.55,3.55,0,0,1,.48,0,3.33,3.33,0,0,1,.6.16,2.09,2.09,0,0,1,.51.28.49.49,0,0,1,.21.39.39.39,0,0,1-.1.27.36.36,0,0,1-.28.12.56.56,0,0,1-.25-.08l-.32-.18a2.1,2.1,0,0,0-.4-.18,1.51,1.51,0,0,0-.48-.08,1.75,1.75,0,0,0-.32,0,1,1,0,0,0-.3.13.66.66,0,0,0-.21.23.62.62,0,0,0-.08.31.43.43,0,0,0,.22.37,3.65,3.65,0,0,0,.53.28c.21.09.44.19.69.28a3.19,3.19,0,0,1,.69.35,1.94,1.94,0,0,1,.53.5,1.17,1.17,0,0,1,.21.71,1.25,1.25,0,0,1-.18.68,1.65,1.65,0,0,1-.46.49,2.33,2.33,0,0,1-.64.29,2.72,2.72,0,0,1-.69.09,3.27,3.27,0,0,1-.53,0,4.26,4.26,0,0,1-.54-.16,2.19,2.19,0,0,1-.5-.27,2,2,0,0,1-.4-.36Z"/><path class="cls-2" d="M28.24,65.61a1.82,1.82,0,0,0,.33.53,1.64,1.64,0,0,0,.5.36,1.45,1.45,0,0,0,.63.13,2.67,2.67,0,0,0,.56-.06c.19,0,.37-.09.54-.15l.19.67c-.23.09-.44.17-.64.23a2.88,2.88,0,0,1-.68.08,2.39,2.39,0,0,1-1.06-.22,2.35,2.35,0,0,1-.78-.61,2.68,2.68,0,0,1-.48-.88,3.47,3.47,0,0,1-.17-1.07,3.15,3.15,0,0,1,.17-1,2.7,2.7,0,0,1,.49-.88,2.38,2.38,0,0,1,.76-.61,2.17,2.17,0,0,1,1-.23,2.06,2.06,0,0,1,1,.23,2.28,2.28,0,0,1,.72.59,2.88,2.88,0,0,1,.45.83,2.85,2.85,0,0,1,.16,1c0,.19,0,.32-.13.38a.72.72,0,0,1-.4.09H28.12A1.77,1.77,0,0,0,28.24,65.61ZM31,64.31a2.11,2.11,0,0,0-.11-.6,1.9,1.9,0,0,0-.28-.55,1.4,1.4,0,0,0-.44-.4,1.07,1.07,0,0,0-.59-.16,1.26,1.26,0,0,0-.64.15,1.34,1.34,0,0,0-.43.39,2.17,2.17,0,0,0-.27.55,3.46,3.46,0,0,0-.14.62Z"/><path class="cls-2" d="M32.53,62.3a.38.38,0,0,1,.13-.3.42.42,0,0,1,.31-.13.44.44,0,0,1,.25.07.57.57,0,0,1,.12.18.8.8,0,0,1,0,.23v.24a1.44,1.44,0,0,1,.62-.52,1.82,1.82,0,0,1,.79-.18,2.09,2.09,0,0,1,.81.15,1.76,1.76,0,0,1,1,1.06,2.37,2.37,0,0,1,.13.81V67a.41.41,0,0,1-.43.43.4.4,0,0,1-.29-.12.44.44,0,0,1-.12-.3V63.92a1.16,1.16,0,0,0-.1-.49,1.33,1.33,0,0,0-.27-.41,1.69,1.69,0,0,0-.41-.29,1.34,1.34,0,0,0-.49-.1,1.16,1.16,0,0,0-.49.1,1.26,1.26,0,0,0-.4.28,1.31,1.31,0,0,0-.36.89v3.41h-.84Z"/><path class="cls-2" d="M37.54,63.6a2.68,2.68,0,0,1,.48-.88,2.2,2.2,0,0,1,.77-.61,2.31,2.31,0,0,1,1-.23,2,2,0,0,1,.44,0,2.22,2.22,0,0,1,.37.09l.36.15.38.2-.41.7-.55-.27a1.37,1.37,0,0,0-.59-.13,1.3,1.3,0,0,0-.7.18,1.35,1.35,0,0,0-.47.45,1.84,1.84,0,0,0-.28.62,2.86,2.86,0,0,0-.09.7,2.83,2.83,0,0,0,.09.68,2,2,0,0,0,.28.64,1.62,1.62,0,0,0,.46.48,1.08,1.08,0,0,0,.65.19,1,1,0,0,0,.3,0l.29-.1.26-.11a.63.63,0,0,1,.21,0,.38.38,0,0,1,.28.12.36.36,0,0,1,.11.26.44.44,0,0,1-.16.36,1.27,1.27,0,0,1-.4.21,2.47,2.47,0,0,1-.47.11l-.41,0a2.26,2.26,0,0,1-1-.22,2.21,2.21,0,0,1-.75-.6,2.42,2.42,0,0,1-.46-.87,3.49,3.49,0,0,1,0-2.09Z"/><path class="cls-2" d="M42.16,62.3a.35.35,0,0,1,.13-.3.45.45,0,0,1,.31-.12.37.37,0,0,1,.29.13.46.46,0,0,1,.11.29v5h-.84Zm.15-1.85a.36.36,0,0,1,.51,0,.34.34,0,0,1,.11.25.34.34,0,0,1-.36.36.35.35,0,0,1-.25-.1.36.36,0,0,1-.11-.25A.33.33,0,0,1,42.31,60.45Z"/><path class="cls-2" d="M47.49,62.34a.56.56,0,0,1,0-.23.28.28,0,0,1,.12-.16.41.41,0,0,1,.27-.07.37.37,0,0,1,.29.13.46.46,0,0,1,.11.29v5h-.85v-.77a1.63,1.63,0,0,1-.63.62,2,2,0,0,1-.87.2,2,2,0,0,1-1-.24,2.22,2.22,0,0,1-.73-.63,2.91,2.91,0,0,1-.44-.88,3.5,3.5,0,0,1-.15-1,3.12,3.12,0,0,1,.16-1,2.57,2.57,0,0,1,.45-.87,2.19,2.19,0,0,1,.72-.63,2,2,0,0,1,1-.24,2,2,0,0,1,.84.18,1.9,1.9,0,0,1,.67.53A2,2,0,0,1,47.49,62.34Zm-2.86,3a2.19,2.19,0,0,0,.24.65,1.44,1.44,0,0,0,.46.49,1.19,1.19,0,0,0,.69.19,1.29,1.29,0,0,0,.74-.19,1.44,1.44,0,0,0,.46-.49,2,2,0,0,0,.22-.67,4.77,4.77,0,0,0,.06-.76,4,4,0,0,0-.06-.69,2.15,2.15,0,0,0-.23-.63,1.32,1.32,0,0,0-.44-.44,1.28,1.28,0,0,0-.7-.18,1.3,1.3,0,0,0-.7.18,1.51,1.51,0,0,0-.47.47,2,2,0,0,0-.26.65,2.8,2.8,0,0,0-.09.7A3.69,3.69,0,0,0,44.63,65.33Z"/><path class="cls-2" d="M49,59.94a.45.45,0,0,1,.12-.31.41.41,0,0,1,.6,0,.45.45,0,0,1,.12.31v7.37H49Z"/></g></g></svg>