<svg xmlns="http://www.w3.org/2000/svg" xmlns:xlink="http://www.w3.org/1999/xlink" viewBox="0 0 741.38 186.91"><defs><style>.cls-1,.cls-46{fill:none;}.cls-2{isolation:isolate;}.cls-3{fill:#361431;}.cls-4{fill:#fff;}.cls-5{fill:#d8f3f1;}.cls-6{fill:#58b4c7;}.cls-7{fill:#073853;}.cls-8{fill:#ff5c5f;}.cls-9{fill:#f42439;}.cls-10{opacity:0.4;}.cls-11{fill:url(#linear-gradient);}.cls-12{fill:url(#linear-gradient-2);}.cls-13{opacity:0.6;fill:url(#linear-gradient-3);}.cls-14,.cls-16{opacity:0.1;}.cls-14{fill:url(#linear-gradient-4);}.cls-15{fill:url(#linear-gradient-5);}.cls-16{fill:url(#linear-gradient-6);}.cls-17{opacity:0.5;fill:url(#linear-gradient-7);}.cls-18{opacity:0.2;fill:url(#linear-gradient-8);}.cls-19{fill:#e8a674;}.cls-20{fill:#e08a4f;}.cls-21{fill:#ccbeb0;}.cls-22{fill:#af9b89;}.cls-23{fill:#e5d9cc;}.cls-24{fill:#c47641;}.cls-25{fill:#edbb98;}.cls-26{fill:#d38462;}.cls-27{fill:#242d22;}.cls-28{fill:#e6e7e8;}.cls-29{fill:#a54e00;}.cls-30{fill:#784d07;}.cls-30,.cls-33,.cls-35,.cls-40{mix-blend-mode:screen;}.cls-31,.cls-33{fill:#24ac8d;}.cls-32{fill:#24725d;}.cls-34,.cls-35{fill:#de8e0d;}.cls-36{fill:#d7e0de;}.cls-36,.cls-37{mix-blend-mode:multiply;}.cls-37{fill:#e3af80;}.cls-38{fill:#05140c;}.cls-39{fill:#30c69e;}.cls-40{fill:#3e634f;}.cls-41{fill:#ff9566;}.cls-42{fill:#a5535d;}.cls-43{clip-path:url(#clip-path);}.cls-44{fill:#fca844;}.cls-45{fill:#ffdb69;}.cls-46{stroke:#fff;stroke-miterlimit:10;stroke-dasharray:0.56 3;}</style><linearGradient id="linear-gradient" x1="579.54" y1="208.18" x2="767.02" y2="51.95" gradientUnits="userSpaceOnUse"><stop offset="0" stop-color="#ffc6eb"/><stop offset="1" stop-color="#bdcdf5"/></linearGradient><linearGradient id="linear-gradient-2" x1="-1507.47" y1="-3107.76" x2="-1403.83" y2="-3062.18" gradientTransform="translate(-769.21 -3032.89) rotate(180)" xlink:href="#linear-gradient"/><linearGradient id="linear-gradient-3" x1="-531.66" y1="92.01" x2="-531.66" y2="173.47" gradientTransform="matrix(-1, 0, 0, 1, -78.3, 0)" gradientUnits="userSpaceOnUse"><stop offset="0" stop-color="#d897af"/><stop offset="1" stop-color="#424878"/></linearGradient><linearGradient id="linear-gradient-4" x1="-120.79" y1="199.46" x2="-120.79" y2="61.78" gradientTransform="translate(549.89)" gradientUnits="userSpaceOnUse"><stop offset="0" stop-color="#424878"/><stop offset="0.97" stop-color="#d495ad"/></linearGradient><linearGradient id="linear-gradient-5" x1="-1013.87" y1="183.78" x2="-1013.87" y2="38.4" gradientTransform="matrix(-1, 0, 0, 1, -825.9, 0)" gradientUnits="userSpaceOnUse"><stop offset="0" stop-color="#3f4364"/><stop offset="1" stop-color="#d18aa4"/></linearGradient><linearGradient id="linear-gradient-6" x1="-965.51" y1="129.25" x2="-965.51" y2="40.49" gradientTransform="matrix(-1, 0, 0, 1, -825.9, 0)" gradientUnits="userSpaceOnUse"><stop offset="0" stop-color="#3f4364"/><stop offset="1" stop-color="#c97896"/></linearGradient><linearGradient id="linear-gradient-7" x1="-1009.84" y1="171.74" x2="-825.08" y2="-30.42" gradientTransform="matrix(-1, 0, 0, 1, -824.28, 0)" gradientUnits="userSpaceOnUse"><stop offset="0" stop-color="#3f4364"/><stop offset="1" stop-color="#e097b2"/></linearGradient><linearGradient id="linear-gradient-8" x1="-1052.17" y1="150.85" x2="-1031.91" y2="112.01" gradientTransform="matrix(-1, 0, 0, 1, -824.28, 0)" gradientUnits="userSpaceOnUse"><stop offset="0" stop-color="#424878"/><stop offset="1" stop-color="#d897af"/></linearGradient><clipPath id="clip-path"><polygon class="cls-1" points="582.23 147.57 585.47 146.9 610.53 146.98 615.38 148.05 605.88 178.65 589.76 178.65 582.23 147.57"/></clipPath></defs><g class="cls-2"><g id="Layer_2" data-name="Layer 2"><g id="Layer_1-2" data-name="Layer 1"><rect class="cls-3" width="741" height="180"/><path class="cls-4" d="M143.49,75.9a26.94,26.94,0,0,0-.14-3.12c-.25-1.68-.6-3.34-1-5a21.68,21.68,0,0,0-3.07-6.89,30,30,0,0,0-5.84-6.48,27.63,27.63,0,0,0-6.89-4.19,46.84,46.84,0,0,0-9.15-2.6,29.26,29.26,0,0,0-3.49-.47,29.53,29.53,0,0,0-16,3.51A38.3,38.3,0,0,0,90,56.59,27.8,27.8,0,0,0,87.75,59a35.1,35.1,0,0,0-4.5,7.78A19.53,19.53,0,0,0,81.5,75.5c.06,1.7.07,3.39.25,5.08a25.84,25.84,0,0,0,1.45,6.34,33.59,33.59,0,0,0,4,7.35,30.12,30.12,0,0,0,13.4,10.67,34.61,34.61,0,0,0,11.51,2.7,13.55,13.55,0,0,0,1.56,0c.48,0,.95-.07,1.43-.14,1.68-.23,3.38-.37,5-.73a24.82,24.82,0,0,0,7.47-3,33.26,33.26,0,0,0,8-6.83,31.26,31.26,0,0,0,4.95-7.8A30.65,30.65,0,0,0,143.49,75.9Z"/><path class="cls-5" d="M119.25,34.76a9.68,9.68,0,0,0-3-3.71,3.21,3.21,0,0,0-.67-.4,9,9,0,0,0-6-.68,8,8,0,0,0-4.9,3.22,7.21,7.21,0,0,0-1.49,4.5,9,9,0,0,0,1.13,4,12.18,12.18,0,0,0,2.75,3.1,1.57,1.57,0,0,0,1.22.46.71.71,0,0,0,.33-.68,1.77,1.77,0,0,0-.16-.61l-.08,0a6,6,0,0,1-2.71-2.74,5.87,5.87,0,0,1-.9-4.37,6.87,6.87,0,0,1,13.34-.67c.68,2.32-.32,6-2.83,7.33l-.1.11a1,1,0,0,0,.17,1.09,1,1,0,0,0,1,0,8.16,8.16,0,0,0,3.3-5.2c.05-.26.06-.53.13-.78A6.41,6.41,0,0,0,119.25,34.76Z"/><path class="cls-5" d="M110.26,43.78l-.76.36a.39.39,0,0,1-.16,0c-.08-.07-.22-.13-.26-.23a2.26,2.26,0,0,1-.11-.64c0-.51,0-1,0-1.44s.52-.63.89-.65c1.37-.08,2.75-.19,4.15-.15.84.08.65,2.1.66,3.2l-.6.3a1.59,1.59,0,0,1-.38-.22,1.52,1.52,0,0,0-1.72-.53A8.91,8.91,0,0,1,110.26,43.78Z"/><path class="cls-5" d="M112.59,48.2l-4.49-.1c-.53,0-.78-.2-.85-.71-.11-.86-.2-1.73-.24-2.6a1,1,0,0,1,1-1.13c1.17-.1,2.34-.16,3.51-.19s2.61,0,3.91,0,1.33.13,1.34,1.35c0,.58,0,1.17,0,1.76a2.86,2.86,0,0,1,0,.65,1,1,0,0,1-1,.89c-.52,0-1,0-1.57,0Z"/><path class="cls-6" d="M143.49,75.9a30.65,30.65,0,0,1-3,13.14,31.26,31.26,0,0,1-4.95,7.8,33.26,33.26,0,0,1-8,6.83,24.82,24.82,0,0,1-7.47,3c-1.64.36-3.34.5-5,.73-.48.07-1,.11-1.43.14a13.55,13.55,0,0,1-1.56,0,34.61,34.61,0,0,1-11.51-2.7,30.12,30.12,0,0,1-13.4-10.67,33.59,33.59,0,0,1-4-7.35,25.84,25.84,0,0,1-1.45-6.34c-.18-1.69-.19-3.38-.25-5.08a19.66,19.66,0,0,1,1.75-8.76A34.76,34.76,0,0,1,87.76,59,26.19,26.19,0,0,1,90,56.59a38.3,38.3,0,0,1,7.93-5.92,29.53,29.53,0,0,1,16-3.51,29.26,29.26,0,0,1,3.49.47,46.84,46.84,0,0,1,9.15,2.6,27.63,27.63,0,0,1,6.89,4.19,30,30,0,0,1,5.84,6.48,21.68,21.68,0,0,1,3.07,6.89c.41,1.65.76,3.31,1,5A26.94,26.94,0,0,1,143.49,75.9Zm-6,.64c-.06-.72-.14-1.84-.27-3a14.94,14.94,0,0,0-1.4-4.33,29,29,0,0,0-4.1-6.65,27.76,27.76,0,0,0-3.84-3.9,18.56,18.56,0,0,0-8.07-4.1l-.12,0a31.5,31.5,0,0,0-6.93-1.17,25,25,0,0,0-7.25.65,21.16,21.16,0,0,0-7,3A27.43,27.43,0,0,0,91.9,63.3a29.54,29.54,0,0,0-3.71,6,21.24,21.24,0,0,0-1.73,7.32,21.35,21.35,0,0,0,1,6.69,20.24,20.24,0,0,0,2.06,5.06,30.06,30.06,0,0,0,8.74,9.56,17.72,17.72,0,0,0,7.29,3.34c.94.16,1.87.44,2.82.56,1.46.18,2.93.27,4.4.4a2.67,2.67,0,0,0,.4,0c1.25-.15,2.5-.28,3.75-.47a20.63,20.63,0,0,0,7.9-2.91,27.58,27.58,0,0,0,7.74-7.29A25.16,25.16,0,0,0,137.54,76.54Z"/><path class="cls-5" d="M112.15,102.32a26.1,26.1,0,0,1-9-1.45,19.37,19.37,0,0,1-5.94-3.41c-4.45-3.49-8-7.7-9.69-13.16a26.21,26.21,0,0,1-1.27-6.41,18.54,18.54,0,0,1,2.56-10.2,32.89,32.89,0,0,1,5.84-7.6,23.57,23.57,0,0,1,13.16-6.51,31.81,31.81,0,0,1,11.66.82c5.52,1.25,9.68,4.44,13.11,8.77a27.19,27.19,0,0,1,4.58,8.38,15,15,0,0,1,.76,3.85,24.61,24.61,0,0,1-5.7,17.19,27.7,27.7,0,0,1-6.87,6.31A22.84,22.84,0,0,1,112.15,102.32Zm-.29-8.1c1-.12,2.1-.16,3.13-.36,4.85-1,9-3.08,11.53-7.54a17,17,0,0,0,2.35-7.83,14.65,14.65,0,0,0-2.18-8.25c-3.2-5.32-8-8-14.15-8.26a18.73,18.73,0,0,0-5.11.51,15,15,0,0,0-9,5.35A14.11,14.11,0,0,0,95.7,80.43a18.71,18.71,0,0,0,5.58,9.35A15.33,15.33,0,0,0,111.86,94.22Z"/><path class="cls-7" d="M129.06,78c-.05-.21-.33-.35-.51-.52-.17.21-.47.41-.5.64-.08.64,0,1.3-.06,1.94-.9,7.56-7.14,11.8-12.35,12.78-.87.16-1.74.26-2.6.47a.94.94,0,0,0-.51.6c0,.1.31.4.52.46a2.53,2.53,0,0,0,.91,0,18.39,18.39,0,0,0,10.2-4.51,14.9,14.9,0,0,0,5-10.67A5.79,5.79,0,0,0,129.06,78Z"/><path class="cls-7" d="M110.15,61.65a7.11,7.11,0,0,0-1.84.13c-6.6,1.47-11.5,6-12.86,12.7L95.3,77c.56.35.91.24,1-.44s.12-1.3.26-1.94a15.18,15.18,0,0,1,13-11.86,1.68,1.68,0,0,0,.65-.1c.19-.12.42-.38.41-.56A.7.7,0,0,0,110.15,61.65Z"/><path class="cls-7" d="M114.55,63c.13,0,.26,0,.39,0a15.14,15.14,0,0,1,12.64,12.38c.1.51-.07,1.24.75,1.33.49,0,.66-.49.46-1.52a16.74,16.74,0,0,0-3-7c-2.76-3.7-6.58-5.64-11.38-6.38-.18.11-.75.29-.78.53C113.53,62.94,114.12,62.93,114.55,63Z"/><path class="cls-7" d="M109.35,93.08c-5.22-.67-11-5.72-12.23-11.46A14.59,14.59,0,0,0,96.79,80c-.1-.26-.45-.43-.69-.63-.15.27-.42.54-.43.82a5.35,5.35,0,0,0,.2,1.42,16.22,16.22,0,0,0,7.65,10.49,13.74,13.74,0,0,0,6.3,2.15l.68-.49c-.25-.2-.5-.42-.76-.59C109.64,93.07,109.48,93.1,109.35,93.08Z"/><path class="cls-7" d="M120.58,68.42a1.21,1.21,0,0,0-1,.11c-1,.6-2,1.28-3,1.94-.21.15-.54.46-.5.56.37.85-.43,1.21-.7,1.79a1.29,1.29,0,0,0,0,.48c.4.37,1.25,0,1.29.81,0,.07.29.12.45.19a2.33,2.33,0,0,1,.61.31c.63.6.93.61,1.23-.15.66-1.65,1.27-3.33,1.84-5A1.11,1.11,0,0,0,120.58,68.42Z"/><path class="cls-7" d="M108.55,71.62c-1.51-.88-3-1.75-4.55-2.58-.22-.12-.72-.1-.82,0A1.08,1.08,0,0,0,103,70c.62,1.39,1.3,2.74,2,4.09.11.21.41.48.57.46a12.58,12.58,0,0,0,2.1-.5c.9-.3.66-1.36,1.3-1.86C108.81,72,108.72,71.72,108.55,71.62Z"/><path class="cls-7" d="M105.91,81c-.06-.43-.76-.37-1,.19-.61,1.63-1.19,3.28-1.68,4.94-.2.67.38,1.06,1.06.75a11.31,11.31,0,0,0,1.94-1.11,7.79,7.79,0,0,0,2.52-2.43c-.34-.51-.66-1-1-1.49C107,81.87,106.09,82.23,105.91,81Z"/><path class="cls-7" d="M117.71,79.82c-.43.71-1.34,1.07-1.45,2-.06.54.15,1.24-.62,1.55,0,0,0,.58.15.66,1.29.72,2.6,1.44,3.95,2.07.53.24.92-.15.89-.79a20.42,20.42,0,0,0-2-5.3C118.37,79.67,117.9,79.51,117.71,79.82Z"/><path class="cls-8" d="M113.13,80.36l-1.24.54.27,6.57c.08,1.88.15,3.77.27,5.65s.25,3.55.38,5.32a1.46,1.46,0,0,0,.1.23c.45-1.8.9-3.59,1.32-5.38q.85-3.58,1.64-7.17c.25-1.12.41-2.25.61-3.38l-3.07-2.22A2,2,0,0,0,113.13,80.36Z"/><path class="cls-8" d="M108.1,78.29a2.8,2.8,0,0,1-.56.12l-6.24.14c-2.72,0-5.43.08-8.14.14-.59,0-1.18.15-1.78.23,1.79.42,3.58.86,5.38,1.27,3.21.72,6.43,1.42,9.65,2.12.35-.54.71-1.08,1.06-1.63s.62-1,.93-1.45Z"/><path class="cls-8" d="M110.85,74c0-1,.12-2.08.12-3.12,0-2.6-.08-5.2-.13-7.81,0-1.75-.08-3.51-.13-5.26a2.77,2.77,0,0,0-.11-.56c-.26,1-.58,1.9-.77,2.87-.83,4.12-1.62,8.26-2.42,12.39l2.39,2Z"/><path class="cls-8" d="M126.08,78.17c-3.79,0-7.58,0-11.37,0l-.47,1c.77.53,1.55,1.06,2.32,1.61.29.21.54.48.81.72L126,79.79l6.31-1.27a1.47,1.47,0,0,0-.48-.22C129.9,78.24,128,78.18,126.08,78.17Z"/><path class="cls-8" d="M106.93,76.71c.43,0,.86-.08,1.29-.12l.43-1c-.58-.51-1.17-1-1.74-1.53-.23-.2-.43-.43-.64-.64-3.14.68-6.29,1.33-9.43,2-2.22.51-4.42,1.09-6.63,1.64a3.85,3.85,0,0,0,.68.1L98.23,77C101.13,76.88,104,76.8,106.93,76.71Z"/><path class="cls-8" d="M110.73,93.33c-.12-1.73-.2-3.46-.27-5.19-.1-2.47-.17-4.94-.26-7.41l-.66-.35a6.65,6.65,0,0,1-.43.84c-.37.53-.76,1-1.17,1.55-.09.11-.29.14-.43.21.07.49.11,1,.22,1.48q1.14,5,2.31,10c.31,1.36.64,2.71,1,4.07a9.26,9.26,0,0,0,.08-1.28C111,96,110.81,94.64,110.73,93.33Z"/><path class="cls-8" d="M112.28,74l1.55.66c0-.1,0-.22.12-.29.91-1,1.84-1.92,2.76-2.87,0-.08,0-.17,0-.25Q115,65.19,113.4,59.12c-.3-1.14-.57-2.29-.85-3.44a3.24,3.24,0,0,0-.12.68c0,2.15.09,4.3.11,6.45,0,3,0,6,0,9.07A16.79,16.79,0,0,1,112.28,74Z"/><path class="cls-8" d="M114.63,75.94c.06.22.13.44.19.66.84,0,1.68-.13,2.53-.13,3.8,0,7.6,0,11.4,0,.23,0,.47.08.7.07,1.12,0,2.23,0,3.35-.06-.16,0-.32-.12-.49-.16l-5.07-1-10.11-2.09a4.36,4.36,0,0,1-.49.81C116,74.65,115.3,75.29,114.63,75.94Z"/><path class="cls-9" d="M135,76.88c-.49-.13-1-.2-1.49-.29l-.28-.06-.38-.06c-1.12,0-2.23,0-3.35.06-.23,0-.47-.07-.7-.07-3.8,0-7.6,0-11.4,0-.85,0-1.69.08-2.53.13,0,.51-.07,1-.11,1.55,3.79,0,7.58,0,11.37,0,1.91,0,3.82.07,5.73.13a1.47,1.47,0,0,1,.48.22l3-.55C135.52,77.38,135.43,77,135,76.88Z"/><path class="cls-9" d="M112.43,93.12c-.12-1.88-.19-3.77-.27-5.65l-.27-6.57-1.69-.17c.09,2.47.16,4.94.26,7.41.07,1.73.15,3.46.27,5.19.08,1.31.25,2.62.35,3.93a9.26,9.26,0,0,1-.08,1.28l0,.25.08.4a7.23,7.23,0,0,0,.25,1.14c.07.18.35.43.48.4a1,1,0,0,0,.67-.46,12.41,12.41,0,0,0,.38-1.6,1.46,1.46,0,0,1-.1-.23C112.68,96.67,112.53,94.9,112.43,93.12Z"/><path class="cls-9" d="M108.1,78.29l.12-1.7c-.43,0-.86.11-1.29.12-2.9.09-5.8.17-8.7.27l-7.34.25a3.85,3.85,0,0,1-.68-.1,5.2,5.2,0,0,0-1.07.22,2.67,2.67,0,0,0-.64.58c.22.21.42.52.68.59.72.19,1.47.27,2.2.4.6-.08,1.19-.21,1.78-.23,2.71-.06,5.42-.09,8.14-.14l6.24-.14A2.8,2.8,0,0,0,108.1,78.29Z"/><path class="cls-9" d="M110.84,63.07c0,2.61.11,5.21.13,7.81,0,1-.08,2.08-.12,3.12h1.43a16.79,16.79,0,0,0,.25-2.12c0-3,0-6,0-9.07,0-2.15-.08-4.3-.11-6.45a3.24,3.24,0,0,1,.12-.68c0-1-.26-1.31-.87-1.15-.27.06-.47.42-.7.64-.12.69-.25,1.39-.38,2.08a2.77,2.77,0,0,1,.11.56C110.76,59.56,110.81,61.32,110.84,63.07Z"/><path class="cls-9" d="M114.24,79.2l-1.11,1.16a2,2,0,0,1,.28.16l3.07,2.22c.18-.49,0-1.23.89-1.21-.27-.24-.52-.51-.81-.72C115.79,80.26,115,79.73,114.24,79.2Z"/><path class="cls-9" d="M107.47,80.68c-.35.55-.71,1.09-1.06,1.63.34.27,1,0,1.1.67.14-.07.34-.1.43-.21.41-.5.8-1,1.17-1.55a6.65,6.65,0,0,0,.43-.84l-1.14-1.15C108.09,79.71,107.79,80.2,107.47,80.68Z"/><path class="cls-9" d="M106.58,73.34a1.15,1.15,0,0,0-.31.11c.21.21.41.44.64.64.57.52,1.16,1,1.74,1.53l1.15-1.14-2.39-2A.81.81,0,0,1,106.58,73.34Z"/><path class="cls-9" d="M116.64,74a4.36,4.36,0,0,0,.49-.81l-.42-1.67c-.92,1-1.85,1.91-2.76,2.87-.07.07-.08.19-.12.29l.8,1.28C115.3,75.29,116,74.65,116.64,74Z"/><g class="cls-10"><polygon class="cls-11" points="620.36 98.66 735.96 8.65 740.01 0 740.34 182 706.34 181.03 653.89 182 619.89 182 483.89 180.06 620.36 98.66"/><polyline class="cls-12" points="735.96 99.11 692.88 123.7 620.36 98.66 735.96 8.65 740.01 0"/></g><polygon class="cls-13" points="165.54 182.27 165.33 170.42 240.14 147.15 256.29 130.74 285.74 91.78 301.77 84.49 390.05 143.61 399.69 135.7 502.39 166.48 741.38 177.46 740.38 182.27 165.54 182.27"/><polygon class="cls-14" points="301.77 84.49 301.77 135.85 381.63 178.54 374.84 165.46 437.67 168.3 556.43 186.91 502.39 166.48 399.69 135.7 390.05 143.61 301.77 84.49"/><polygon class="cls-15" points="375.47 182.27 123.85 141 25.53 38.87 0.47 50.82 0.47 181.53 369.47 182.27 375.47 182.27"/><line class="cls-16" x1="103.39" y1="73.9" x2="175.83" y2="125.61"/><polygon class="cls-17" points="123.85 141 25.53 38.87 18.76 149.73 28.73 155.16 116.3 175.29 200.8 179.67 133.64 155.27 335.47 175.27 123.85 141"/><polygon class="cls-18" points="216.37 154.55 175.84 125.61 202.37 129.91 226.69 108.58 256.29 130.74 240.14 147.15 216.37 154.55"/><path class="cls-19" d="M644.13,179.94c-.56-2.27,5.3-20.26-12.31-27.93-1.78-.78-20.47-4.85-21.29-5s1.7-18.83,1.7-18.83l-28.12.57s2.87,17.83,1.36,18.18c-.5.11-21.59,4.38-24.65,6-8.36,4.33-9.09,15.34-9.28,27.08Z"/><path class="cls-20" d="M588.65,152.1c-1-.51,0-3.8,4.36-6.43,6.63-4,18-7.81,18.14-8.74.51-4.48,1.08-8.78,1.08-8.78l-28.12.57s2.87,17.83,1.36,18.18c-.5.11-21.59,4.38-24.65,6-8.36,4.33-9.09,15.34-9.28,27.08h5.68s-1-14.07,8.15-23.67c1.2-1.26,20.19-.66,28.4.76C602.86,158.6,591.35,153.53,588.65,152.1Z"/><path class="cls-20" d="M620.09,155.37c-5.27-.16-13.21-.36-14.59-.24-2.08.19-4.16,2.65-.37,2.84l13.79-1.72S622.81,155.45,620.09,155.37Z"/><path class="cls-21" d="M629.76,77.72c-2.15-13.07-10.42-23.45-29.51-24.43-19.63-1-31.68,10.71-34.16,24.7-.14.77-.33,18.8.39,21.87.44,1.89,1.07,3.25,2,3.7.22.11.54,2.22.87,4.84a37.72,37.72,0,0,0-.12,6.55.73.73,0,0,0,.71.71c.42,0-.08,4.08-.11,4.53a.71.71,0,0,0,.35.62,5,5,0,0,1,2.24,3.52.72.72,0,0,0,.87.5c1-.36,1.85,1.36,2.53,1.85s1.15.22,1.68.46.82,1.08,1.35,1.41a6.07,6.07,0,0,0,1.75.61,4.09,4.09,0,0,1,2.56,1.15,3.37,3.37,0,0,0,1.21,1.1c.7.33,1.08.32,1.6,1,.26.33.52.66.81,1a5.52,5.52,0,0,0,1.85,1.36c.34.14.7.15,1,.26a3.58,3.58,0,0,1,1.25.9,3.37,3.37,0,0,0,1.58.84c1.6.34,3.11-.31,4.64.47a1.64,1.64,0,0,0,1.59.13,5.68,5.68,0,0,1,1.83-.67c.56,0,1,.23,1.59.22a4,4,0,0,0,2.13-1l3.09-2.06a.7.7,0,0,0,.85.1,23.36,23.36,0,0,0,4.13-3.49,1.72,1.72,0,0,0,1.06.23.73.73,0,0,0,.68-.52c.45-1.92,2.69-2.21,4.18-3a5.34,5.34,0,0,0,1.59-1.28c.59-.71,1-1.9,2-2.06.45-.07.68.1,1.1-.19a4.86,4.86,0,0,0,1.19-1.75,12.26,12.26,0,0,0,1.19-4l.2,0a.73.73,0,0,0,.69-.9,14.38,14.38,0,0,1-.39-3.45h.08a.72.72,0,0,0,.68-.9,19.61,19.61,0,0,1-.16-5.41.56.56,0,0,0-.34-.61,20.52,20.52,0,0,1,.32-3.17c1.22-.67,2.06-2.5,2.63-4.89C629.92,94.82,629.91,78.61,629.76,77.72Z"/><path class="cls-22" d="M629.2,87.1c.06-.7-2.44,1.55-2.18.67.17-.55.57-2.22.19-2.75s-1.65,0-1.7.1c-.5,1.06,1.61,11.73,1.61,11.73A11.28,11.28,0,0,0,629,92.5,28.73,28.73,0,0,0,629.2,87.1Z"/><path class="cls-22" d="M594.46,127.43c.37.38,1-1,1.7-1.13s.47,1.23,1,1.42,1-1.42,1.89-1.42.57,1.13,1.14,1.13.66-2,.66-2l-6.06-.28C594,125.16,594.08,127.05,594.46,127.43Z"/><path class="cls-22" d="M615.09,121.37c-1.32-.09-2.55-1.32-3.22-1.42s.1.86-.47,1a9.62,9.62,0,0,1-2.46-.57c-.42,0-.94.43-.19,1a9,9,0,0,0,2.84,1c.95,0,.57.18.95-.67s1.7.76,2.84,1a3.11,3.11,0,0,0,2.46-.85C618.31,121.28,616.42,121.47,615.09,121.37Z"/><path class="cls-1" d="M593.6,131.73s0,.12,0,0Z"/><path class="cls-1" d="M595.28,112.85a0,0,0,0,1,0,0S595.28,112.86,595.28,112.85Z"/><polygon class="cls-1" points="594.88 131.64 594.88 131.65 594.88 131.64 594.88 131.64"/><path class="cls-1" d="M626.45,82.1Z"/><path class="cls-23" d="M569.39,74.14c.85-.75-1.54-4.64-1.12-1.75.12.84-.2.76-.6,1.23a2.52,2.52,0,0,0-.56,1.44c-.06.82,1.07,3.1,1.79,4,.53.66.72.17.64-.21-.15-.76-1.38-3.15-1.4-3.58C568.1,74.53,568.92,74.55,569.39,74.14Z"/><path class="cls-23" d="M627.24,76.35c.93-1,0-5.72-.32-3.25a3.65,3.65,0,0,1-.68,2.24C625.62,76,626.62,77,627.24,76.35Z"/><path class="cls-23" d="M627.38,81.06c1.72-3,1.2-3.76.72-3-.83,1.35-3,2.55-3.23,4.24-.16,1.48,1.55,1.23,2.76,1,0,.52,0,1,0,1.56,0,3,1.41-1.64,1.41-2.46a.72.72,0,0,0-.9-.68,8.13,8.13,0,0,1-1.63.33l.11-.12A4.26,4.26,0,0,0,627.38,81.06Zm-.93,1Z"/><path class="cls-23" d="M625.88,112.37a17.18,17.18,0,0,0-.47-4.16c-.42-1.37-1-1.08-1-.59,0,.84,0,1.67,0,2.5a3.73,3.73,0,0,0,0,1.11.54.54,0,0,0,0,.18.72.72,0,0,0-.81.51c-.36,1.72.92,2.74,1,4.37.05.9,1.47.91,1.42,0-.07-1.11-1-2.26-1.09-3.35A.89.89,0,0,0,625.88,112.37Z"/><path class="cls-23" d="M622.59,116.07v.26a1.22,1.22,0,0,0-.27,0c-1.16.16-1.24,1.82-1.33,3.21-.42-.79-1.64-.08-1.22.73.29.56.61,1.1,1,1.63a.72.72,0,0,0,1.23,0,5.5,5.5,0,0,0,.26-.65l.06.44a.71.71,0,0,0,1.29.17c.88-1.88.47-3.8.45-5.79A.71.71,0,0,0,622.59,116.07Z"/><path class="cls-23" d="M618.59,122.49c0,.19-.06.38-.1.56a1,1,0,0,0-.81-.08,1.4,1.4,0,0,0-.79.74,7.56,7.56,0,0,0-.45,1,2.83,2.83,0,0,0-1.15-1.82.72.72,0,0,0-1.07.62,7.83,7.83,0,0,1-.18,2.07,7.83,7.83,0,0,0-1.06-2.32c-.37-.54-1.38-.4-1.33.36a14.9,14.9,0,0,1,0,3.06,10.44,10.44,0,0,0-.14,2.62c.07.52.78,1.05,1.21.5a1,1,0,0,0,.29-.75v0a.82.82,0,0,0,1.14-.15,8.69,8.69,0,0,0,1.18-2.53c0,.31.07.58.1.73a.71.71,0,0,0,1.18.32,8.59,8.59,0,0,0,1.16-1.87l.11-.24a.72.72,0,0,0,1.27.09,8.31,8.31,0,0,0,.82-2.51C620.1,122,618.74,121.59,618.59,122.49Z"/><path class="cls-23" d="M609.41,125c0,.36.05.72.07,1.09a4.45,4.45,0,0,0-.73-.86c-.36-.31-1.1-.25-1.19.32a22.22,22.22,0,0,1-1,4.93,8.27,8.27,0,0,0-.16-2.47.72.72,0,0,0-1.3-.17c-.56,1.23-1.15,2.44-1.76,3.64a13,13,0,0,1,.49-1.77.71.71,0,0,0-1.18-.69,11.33,11.33,0,0,0-1.66,2.56c0-.47.09-.85.1-1,0-.67-.78-.87-1.21-.51a7.38,7.38,0,0,0-1.41,1.61,10.54,10.54,0,0,1-.1-1.13.72.72,0,0,0-1.22-.5,5,5,0,0,0-1.31,3.56.71.71,0,0,0,1.42,0c0-.18.2.25.31.64a.72.72,0,0,0,1.37,0c.12-.51.46-.52.5-.1a1.32,1.32,0,0,0,.66,1.26.72.72,0,0,0,1-.43c.18-.5.54-.7.57-.3A.71.71,0,0,0,603,135c.66-1.18,1.41-.57,2-.84,1.51-.71,3.15-3.49,3-3.1a.72.72,0,0,0,1.12.86c1.9-1.89,1.91-4.49,1.72-7C610.76,124.05,609.34,124,609.41,125Z"/><path class="cls-23" d="M594.88,129.66a.73.73,0,0,0-.87.49,4.77,4.77,0,0,0-.34,1l-.06.47a.62.62,0,0,0-.05.31.75.75,0,0,0,.1.38c.27.61,1.11.34,1.29-.17a1.4,1.4,0,0,0,0-.34l0-.15,0-.13a4.87,4.87,0,0,1,.34-1A.72.72,0,0,0,594.88,129.66Zm0,2h0Zm-1.28.08c0,.12,0,0,0,0Z"/><path class="cls-23" d="M596.2,111.16a1.8,1.8,0,0,0-.39-.12,1.45,1.45,0,0,0-1.36.65c-.1-.35-.38-.57-.92-.57-.82,0-1.49.81-1.89,1.42-.94,1.46-1.65,3.13-2.45,4.67-.42.81.8,1.53,1.23.72l.61-1.32a.69.69,0,0,0,.88.65,2.82,2.82,0,0,0,1.67-1.46.88.88,0,0,1,.42.78.71.71,0,0,0,1.21.5,8.62,8.62,0,0,0,2.41-5.91A.71.71,0,0,0,596.2,111.16Z"/><path class="cls-23" d="M590.11,112.64c.68-.62-.33-1.62-1-1a6.55,6.55,0,0,0-1.15,1.45.66.66,0,0,0-.66-.16c-1.53.52-2.22,2.47-2.77,3.84a.71.71,0,0,0,1.18.69l.13-.15A.87.87,0,0,0,586,117c0,.27-.07.55-.09.82-.07.72,1,.94,1.32.36C588.23,116.38,588.52,114.1,590.11,112.64Z"/><path class="cls-23" d="M583.09,115.63a.72.72,0,0,0-1,.25,10.81,10.81,0,0,0-1.12,2.06.71.71,0,0,0,.5.87.73.73,0,0,0,.87-.5,9.06,9.06,0,0,1,1-1.71A.71.71,0,0,0,583.09,115.63Z"/><path class="cls-23" d="M603,117.89a.71.71,0,0,0,.8-1c-.39-.87-.78-1.74-1.18-2.61-.14-.3-.29-.61-.43-.92l.4.34a38.51,38.51,0,0,1,4,4.12.69.69,0,0,0,1.18-.35,3.82,3.82,0,0,0,1.41,1.57.71.71,0,0,0,1-.43,2.45,2.45,0,0,0,0-1.36l1.33,1.66c.57.72,1.57-.29,1-1-1.17-1.46-2.52-4.16-4.62-4.3a.63.63,0,0,0-.51.23,4,4,0,0,0-2.65-1.67c-.44-.07-1,.32-.91.78-.63-.61-1.7-1.88-2.64-1.65a1,1,0,0,0-.75.8l-.14-.28c-.41-.82-1.63-.1-1.23.71C600,114.29,600.83,117.29,603,117.89Z"/><path class="cls-23" d="M615.1,119.76c.51.76,1.74,0,1.23-.72-1-1.54-5-4-4.42-3.36A33.92,33.92,0,0,1,615.1,119.76Z"/><path class="cls-19" d="M574.24,82.43s0,0,0,.07c0,.4-2.1,3.18-2.28,5.46-.24,3.13.35,8.45.43,11.21.1,3.64,1.18,19.17,6.41,19.06,4.26-9.8,15.12-8.22,18.79-8.32,16.57-1,19.12,9.17,19.12,9.17,3,.21,5.12-6.33,6.09-13.94A114.05,114.05,0,0,0,623.52,89c-.22-2.84-1.91-6-1.93-6.43a.25.25,0,0,1,0-.09c.18-.93,1.66-5.59,1.66-5.59s3.81-26.51-26-25.95c-27.79.53-24.67,26-24.67,26S574.06,81.5,574.24,82.43Z"/><path class="cls-20" d="M623.52,89c-.22-2.84-1.91-6-1.93-6.43a.25.25,0,0,1,0-.09c.18-.93,1.66-5.59,1.66-5.59s-1,2.74-2.83,6.68c-.16.34,1.68,5.84,1.67,6.23-.51,16.61-2.91,24.42-6.17,27.5a8.51,8.51,0,0,1,.79,1.83c3,.21,5.12-6.33,6.09-13.94A114.05,114.05,0,0,0,623.52,89Z"/><path class="cls-20" d="M573.94,65.48a28.14,28.14,0,0,0-1.38,11.38s1.48,4.65,1.66,5.58a.17.17,0,0,1,0,.07c0,.41-2.1,3.19-2.28,5.46-.24,3.13.35,8.45.43,11.22.1,3.63,1.18,19.16,6.41,19,3.06-7,9.52-8.2,14.28-8.34-4.22-3.09-14.37,3.49-14.73,3.72a2.94,2.94,0,0,0,.86-2.84c-2-6.25,1.83-3.53,2.55-4,1-.61-.87-3.32-3.19-6.1-1.6-1.92-2.45-5-3.34-9-.27-1.21,3.34-7.12,2.93-8.26-.55-1.54-1.06-3-1.51-4.52C574.35,71.54,574.36,64.28,573.94,65.48Z"/><path class="cls-19" d="M628.8,89.51a4.09,4.09,0,0,0-3,.36,16.41,16.41,0,0,1,.66,3.29c0,.81-.08,1.75-.14,2.76s.69,2.06.62,3-.53,2.08-.67,2.93a31.77,31.77,0,0,0-.6,4.32,4.54,4.54,0,0,0,2.5-1.19c1.69-1.37,3.8-11.17,3.8-11.17A4.3,4.3,0,0,0,628.8,89.51Z"/><path class="cls-20" d="M626.45,93.16c0,.81-.08,1.75-.14,2.76s.69,2.06.62,3-.53,2.08-.67,2.93c-.06.38-.12.75-.18,1.09s1.13.77,2-1.3c1.34-3.15,2.31-8.33,1.35-9.23A2,2,0,0,0,626.45,93.16Z"/><path class="cls-20" d="M568.51,91A4.22,4.22,0,0,0,562,94.74s2.11,9.8,3.8,11.18A3.89,3.89,0,0,0,569.2,107c.08,0-.09-1.33-.21-3.94,0-.79.18-2.37.1-3.22s-.9-1.49-1-2.46c0-.42.81-2.34.79-2.73A15.41,15.41,0,0,0,568.51,91Z"/><path class="cls-24" d="M569,103.86c0-.24,0-.49,0-.76,0-.79.18-2.37.1-3.22s-.9-1.49-1-2.46c0-.42.81-2.34.79-2.73s0-.77-.07-1.12c0-.57-3.4-1-4.16,1.06C563.46,98,569.15,106,569,103.86Z"/><path class="cls-20" d="M591.69,76.61c-.43,0-1,.59-.55.87s10.23,0,10.93.14.42-.56.28-1S594.14,76.53,591.69,76.61Z"/><path class="cls-20" d="M591.52,71c.42.28,10.23,0,10.93.14s.42-.56.28-1-8.21-.11-10.66,0C591.63,70.19,591.1,70.76,591.52,71Z"/><path class="cls-20" d="M605.6,73.26s-18.63.25-18.63.56V74a.56.56,0,0,0,.56.55H605.6a.56.56,0,0,0,.56-.55v-.13A.56.56,0,0,0,605.6,73.26Z"/><path class="cls-25" d="M614,62.4c-1.13-.57-2.69-.71-1.84,1.27a47.32,47.32,0,0,1,1.7,7.25c.71,2.41,1.85,2,2.13.56S615.14,63,614,62.4Z"/><path class="cls-25" d="M608.61,58c-.14.71,2.84,3.13,3.12,1.28S609,56.27,608.61,58Z"/><path class="cls-26" d="M601.94,101.66s-1,3.2-3.81,3.2-3.9-3-3.9-3a11.38,11.38,0,0,0,3.76.87A13,13,0,0,0,601.94,101.66Z"/><path class="cls-27" d="M611.82,96.56c0,2.19-1,4-2.39,4s-2.52-1.71-2.58-3.9,1-4,2.39-4S611.76,94.37,611.82,96.56Z"/><path class="cls-27" d="M590.65,96.69c.17,2.19-.81,4-2.17,4.14s-2.61-1.58-2.78-3.77.81-4,2.18-4.14S590.49,94.51,590.65,96.69Z"/><path class="cls-24" d="M603.29,119.34H591.6c0,2.57,2.62,4.31,5.85,4.31S603.29,121.91,603.29,119.34Z"/><path class="cls-28" d="M590.72,88.24a1.32,1.32,0,0,0,1-.46.88.88,0,0,0-.65-1.45L581.23,85a1.23,1.23,0,0,0-1.42,1l-.17,1.78a1,1,0,0,0,1.1,1Z"/><path class="cls-28" d="M603.75,89.34l10-2a1.19,1.19,0,0,0,.95-1.46l-.59-1.87a1.06,1.06,0,0,0-1.45-.59l-9.37,3.82a1.25,1.25,0,0,0-.73.81A1,1,0,0,0,603.75,89.34Z"/><path class="cls-29" d="M629,108.61a5.06,5.06,0,0,0,1.23.06v0a10,10,0,0,1-5.42-1,5.9,5.9,0,0,1-.69-.4,7.34,7.34,0,0,1-1.61-1.43,8.05,8.05,0,0,1-1.21-1.88c1.73.07,2.16-.41,2.16-.41a7.09,7.09,0,0,0,5.21,5Z"/><path class="cls-30" d="M622.91,103.86a5.09,5.09,0,0,1-1.64.15,8.05,8.05,0,0,0,1.21,1.88,7.34,7.34,0,0,0,1.61,1.43l.11.07C623.17,106.38,622.36,105.1,622.91,103.86Z"/><path class="cls-29" d="M623,95.81a16.38,16.38,0,0,0,.43,7.79s-.43.48-2.16.41a13.55,13.55,0,0,1-.93-7.73A8.84,8.84,0,0,1,623,95.81Z"/><path class="cls-30" d="M621.91,95.9a7,7,0,0,0-1.57.38,14,14,0,0,0,.7,7.22C620.49,101.05,619.69,97.31,621.91,95.9Z"/><path class="cls-29" d="M623,89.52a5,5,0,0,1,2.58,0,12.29,12.29,0,0,0-2.61,6.3,8.84,8.84,0,0,0-2.66.47,18.11,18.11,0,0,1,1-3.81,10.89,10.89,0,0,1,1.41-2.59Z"/><path class="cls-30" d="M625.21,90c.13-.18.26-.34.4-.5a5,5,0,0,0-2.58,0l-.29.36a10.89,10.89,0,0,0-1.41,2.59,18.11,18.11,0,0,0-1,3.81l.2-.08C621.21,93.35,622.55,90.92,625.21,90Z"/><path class="cls-29" d="M632.09,86.83a7.62,7.62,0,0,0-6.48,2.68,5,5,0,0,0-2.58,0,9.43,9.43,0,0,1,2.58-2.21,9.18,9.18,0,0,1,4.1-1.27h0a9.23,9.23,0,0,1,2.9.85h0A4.34,4.34,0,0,0,632.09,86.83Z"/><path class="cls-30" d="M630.63,86.84a7.94,7.94,0,0,1,1.46,0,4.34,4.34,0,0,1,.52.08h0a9.23,9.23,0,0,0-2.9-.85h0a9.18,9.18,0,0,0-4.1,1.27A9.43,9.43,0,0,0,623,89.52l.23,0A10.05,10.05,0,0,1,630.63,86.84Z"/><path class="cls-29" d="M637,89.4a6.84,6.84,0,0,0-4.34-2.49h0a9.23,9.23,0,0,0-2.9-.85h0a8.37,8.37,0,0,1,4.64,1q.23.12.45.27A7.62,7.62,0,0,1,637,89.4Z"/><path class="cls-31" d="M639.25,120.2a90.26,90.26,0,0,1,1,12s-6.26,3.65-18.69,3.13a119.74,119.74,0,0,0,2-12.61h0l7.55,2.48Z"/><path class="cls-32" d="M624.78,107.72s-.2,4.94-.81,11.29h-2.31a36.77,36.77,0,0,0,2.21-10.86h0c.09-.29.16-.56.22-.83A5.9,5.9,0,0,0,624.78,107.72Z"/><path class="cls-32" d="M620.24,122.68h3.34a119.74,119.74,0,0,1-2,12.61,24.53,24.53,0,0,0-5.33-4.7A62.12,62.12,0,0,0,620.24,122.68Z"/><path class="cls-31" d="M630.2,108.69v0a8,8,0,0,0,5.63-3.19,77.74,77.74,0,0,1,2.81,11l-7.51,5L624,119c.61-6.35.81-11.29.81-11.29A10,10,0,0,0,630.2,108.69Z"/><path class="cls-33" d="M640.23,131.93a37.62,37.62,0,0,1-14.5-.1,51.8,51.8,0,0,0,1.38-8l-3.53-1.16h0a119.74,119.74,0,0,1-2,12.61c12.43.52,18.69-3.13,18.69-3.13Z"/><path class="cls-33" d="M626.6,108.41a8.38,8.38,0,0,1-1.82-.69s-.2,4.94-.81,11.29l3.35,1.17A70.48,70.48,0,0,0,626.6,108.41Z"/><path class="cls-34" d="M639.25,120.2l-8.12,5-7.55-2.48h0c.15-1.26.27-2.49.39-3.67l7.16,2.5,7.51-5C638.86,117.68,639.06,118.91,639.25,120.2Z"/><path class="cls-35" d="M638.64,116.52l-7.51,5L624,119c-.12,1.18-.24,2.41-.39,3.67h0l1.45.47c.11-.47.23-.94.37-1.39,2,.2,3.88,1,5.93.93a71.33,71.33,0,0,0,7.54-4.89C638.79,117.37,638.72,116.94,638.64,116.52Z"/><path class="cls-36" d="M631.46,110.43a13.29,13.29,0,0,0,5.19-2.36c-.49-1.66-.82-2.59-.82-2.59a8,8,0,0,1-5.63,3.19v0a10,10,0,0,1-5.42-1s0,.39,0,1.08A8.21,8.21,0,0,0,631.46,110.43Z"/><path class="cls-29" d="M621.66,119H624c-.12,1.18-.24,2.41-.39,3.67h-3.34C620.72,121.53,621.21,120.3,621.66,119Z"/><path class="cls-34" d="M629.71,100.36a1.5,1.5,0,0,0,.7.38,1.93,1.93,0,0,0,.47.05,34.8,34.8,0,0,1-1.91,7.82l-.33,0a7.09,7.09,0,0,1-5.21-5,52.89,52.89,0,0,0,5.62-4.48A2.36,2.36,0,0,0,629.71,100.36Z"/><path class="cls-37" d="M629.29,99.78a2.72,2.72,0,0,1-.24-.66,52.89,52.89,0,0,1-5.62,4.48,9.6,9.6,0,0,0,.56,1.3A14.53,14.53,0,0,0,629.29,99.78Z"/><path class="cls-35" d="M630.41,100.74l-.12,0c-.76,2.14-1,4.72-2.59,4.72a7.34,7.34,0,0,1-4.18-1.88l-.09.06a7.09,7.09,0,0,0,5.21,5l.33,0a34.8,34.8,0,0,0,1.91-7.82A1.93,1.93,0,0,1,630.41,100.74Z"/><path class="cls-34" d="M632,100.28a3.44,3.44,0,0,0,.81-1.16h0a18.12,18.12,0,0,1,3.58,5.58c-.19.27-.38.53-.58.78a8,8,0,0,1-5.63,3.19,5.06,5.06,0,0,1-1.23-.06,34.8,34.8,0,0,0,1.91-7.82A1.86,1.86,0,0,0,632,100.28Z"/><path class="cls-37" d="M631,100.77l-.13,0a34.8,34.8,0,0,1-1.91,7.82,4.91,4.91,0,0,0,1,.06A20.52,20.52,0,0,0,631,100.77Z"/><path class="cls-35" d="M632.83,99.12h0a4.13,4.13,0,0,1-.22.42c1.3,1.63,2.45,3.39,1.67,4.94a6.93,6.93,0,0,1-5.28,4l0,.08a5.06,5.06,0,0,0,1.23.06,8,8,0,0,0,5.63-3.19c.2-.25.39-.51.58-.78A18.12,18.12,0,0,0,632.83,99.12Z"/><path class="cls-34" d="M633.14,98.22a4.17,4.17,0,0,0,.13-.85h0s3.41.21,5.63.37a12.85,12.85,0,0,1-.25,1.55,15.78,15.78,0,0,1-2.26,5.41,18.12,18.12,0,0,0-3.58-5.58h0A4.79,4.79,0,0,0,633.14,98.22Z"/><path class="cls-37" d="M632.84,99.09s0,0,0,0h0a18.12,18.12,0,0,1,3.58,5.58c.13-.19.25-.4.38-.6A9.74,9.74,0,0,0,632.84,99.09Z"/><path class="cls-35" d="M633.29,97.37h0a5.43,5.43,0,0,1-.09.69c1.79.4,3.92,1.22,3.92,2a6.77,6.77,0,0,1-.8,4.35l.11.25a15.78,15.78,0,0,0,2.26-5.41,12.85,12.85,0,0,0,.25-1.55C636.7,97.58,633.29,97.37,633.29,97.37Z"/><path class="cls-34" d="M633.27,97.37a3.46,3.46,0,0,0-.21-1.56,16.42,16.42,0,0,0,5-4.59,12.83,12.83,0,0,1,.87,6.52c-2.22-.16-5.63-.37-5.63-.37Z"/><path class="cls-37" d="M633.27,96.77a4,4,0,0,1,0,.6h0s3.41.21,5.63.37c0-.33.06-.66.08-1A28.84,28.84,0,0,1,633.27,96.77Z"/><path class="cls-35" d="M633.25,95.69c1.81-.15,3.58-2.15,4.48-1.55A3.31,3.31,0,0,1,639,95.77a11.94,11.94,0,0,0-1-4.55A15.84,15.84,0,0,1,633.25,95.69Z"/><path class="cls-34" d="M632,94.79s1.37-5.09.63-7.88A6.84,6.84,0,0,1,637,89.4l0,0a8.06,8.06,0,0,1,1.08,1.78,16.42,16.42,0,0,1-5,4.59,1.83,1.83,0,0,0-.46-.66A1.47,1.47,0,0,0,632,94.79Z"/><path class="cls-37" d="M632.61,95.16a1.89,1.89,0,0,1,.45.65,16.42,16.42,0,0,0,5-4.59,8.73,8.73,0,0,0-.56-1A25.07,25.07,0,0,1,632.61,95.16Z"/><path class="cls-35" d="M637,89.4a6.84,6.84,0,0,0-4.34-2.49c.74,2.79-.63,7.88-.63,7.88a1.73,1.73,0,0,1,.39.18,9.88,9.88,0,0,0,1.91-6.15,7.19,7.19,0,0,1,2.87.86,1.37,1.37,0,0,0-.18-.24Z"/><path class="cls-34" d="M632.61,86.91c.74,2.79-.63,7.88-.63,7.88a1.8,1.8,0,0,0-.71-.09,1.7,1.7,0,0,0-.79.24,14.61,14.61,0,0,0-4.87-5.42h0a7.62,7.62,0,0,1,6.48-2.68A4.34,4.34,0,0,1,632.61,86.91Z"/><path class="cls-37" d="M632.61,86.91a4.34,4.34,0,0,0-.52-.08l-.5,0a20.55,20.55,0,0,1-.34,7.89h0a1.8,1.8,0,0,1,.71.09S633.35,89.7,632.61,86.91Z"/><path class="cls-35" d="M625.61,89.51h0a14.61,14.61,0,0,1,4.87,5.42,1.23,1.23,0,0,1,.26-.12c-.48-2.4-2.66-4.29-2.1-5.69a3.94,3.94,0,0,1,3-2.32A7.59,7.59,0,0,0,625.61,89.51Z"/><path class="cls-34" d="M629.71,95.69a3.79,3.79,0,0,0-.51,1h0a23.38,23.38,0,0,0-6.2-.93,12.29,12.29,0,0,1,2.61-6.3h0a14.61,14.61,0,0,1,4.87,5.42A2.39,2.39,0,0,0,629.71,95.69Z"/><path class="cls-37" d="M629.86,95.49a2.48,2.48,0,0,1,.62-.55,14.61,14.61,0,0,0-4.87-5.42h0c-.2.23-.38.47-.56.72A15.8,15.8,0,0,1,629.86,95.49Z"/><path class="cls-35" d="M624.57,93.2c-.6-1.2.52-2.4,1.17-3.6l-.13-.08h0a12.29,12.29,0,0,0-2.61,6.3,23.38,23.38,0,0,1,6.2.93h0a4.6,4.6,0,0,1,.25-.61,5.16,5.16,0,0,0-.81-.42C627.08,94.77,625.2,94.77,624.57,93.2Z"/><path class="cls-34" d="M629,98a4.8,4.8,0,0,0,.08,1.15,52.89,52.89,0,0,1-5.62,4.48,16.38,16.38,0,0,1-.43-7.79,23.38,23.38,0,0,1,6.2.93A5.68,5.68,0,0,0,629,98Z"/><path class="cls-37" d="M629.2,96.74a23.38,23.38,0,0,0-6.2-.93c-.06.44-.11.85-.15,1.26,2.12.13,4.14.21,6.19.35A5.17,5.17,0,0,1,629.2,96.74Z"/><path class="cls-35" d="M624.57,99.78a6.35,6.35,0,0,1-.47-3.93l-1.1,0a16.38,16.38,0,0,0,.43,7.79,52.89,52.89,0,0,0,5.62-4.48,3.87,3.87,0,0,1-.08-.77C627.2,99.38,625.1,101.37,624.57,99.78Z"/><path class="cls-31" d="M631.27,94.7a1.8,1.8,0,0,1,.71.09,1.47,1.47,0,0,1,.62.36,1.83,1.83,0,0,1,.46.66,3.46,3.46,0,0,1,.21,1.56,4.17,4.17,0,0,1-.13.85,4.79,4.79,0,0,1-.31.9,3.44,3.44,0,0,1-.81,1.16,1.86,1.86,0,0,1-1.14.51,1.93,1.93,0,0,1-.47-.05,1.5,1.5,0,0,1-.7-.38,2.36,2.36,0,0,1-.66-1.24A4.8,4.8,0,0,1,629,98a5.68,5.68,0,0,1,.23-1.23h0a3.79,3.79,0,0,1,.51-1,2.39,2.39,0,0,1,.77-.75A1.7,1.7,0,0,1,631.27,94.7Z"/><path class="cls-33" d="M630.61,99.57a4.85,4.85,0,0,1-.08-1.16,5.59,5.59,0,0,1,.23-1.22h0a3.77,3.77,0,0,1,.5-1,2.42,2.42,0,0,1,.77-.76,1.92,1.92,0,0,1,.58-.21l0,0a1.47,1.47,0,0,0-.62-.36,1.8,1.8,0,0,0-.71-.09,1.7,1.7,0,0,0-.79.24,2.39,2.39,0,0,0-.77.75,3.79,3.79,0,0,0-.51,1h0A5.68,5.68,0,0,0,629,98a4.8,4.8,0,0,0,.08,1.15,2.36,2.36,0,0,0,.66,1.24,1.5,1.5,0,0,0,.7.38,1.93,1.93,0,0,0,.47.05l.32-.05A2.45,2.45,0,0,1,630.61,99.57Z"/><path class="cls-31" d="M562.19,100.28a3.57,3.57,0,0,1-.82-1.16,5.63,5.63,0,0,1-.31-.9,5,5,0,0,1-.13-.85,3.92,3.92,0,0,1,0-.77,2.86,2.86,0,0,1,.2-.79,1.8,1.8,0,0,1,.45-.66,1.54,1.54,0,0,1,.62-.36,1.8,1.8,0,0,1,.71-.09,1.63,1.63,0,0,1,.79.24,2.52,2.52,0,0,1,.78.75,4.07,4.07,0,0,1,.5,1,4.69,4.69,0,0,1,.23,1.23,4.34,4.34,0,0,1-.08,1.15,2.29,2.29,0,0,1-.65,1.24,1.53,1.53,0,0,1-.71.38,1.85,1.85,0,0,1-.46.05A1.81,1.81,0,0,1,562.19,100.28Z"/><path class="cls-33" d="M564.07,100.39a3.54,3.54,0,0,1-.81-1.16,4.79,4.79,0,0,1-.31-.9,4.17,4.17,0,0,1-.13-.85,3.38,3.38,0,0,1,.21-1.56,1.83,1.83,0,0,1,.46-.66,1.21,1.21,0,0,1,.35-.24l-.12-.08a1.63,1.63,0,0,0-.79-.24,1.8,1.8,0,0,0-.71.09,1.54,1.54,0,0,0-.62.36,1.8,1.8,0,0,0-.45.66,2.86,2.86,0,0,0-.2.79,3.92,3.92,0,0,0,0,.77,5,5,0,0,0,.13.85,5.63,5.63,0,0,0,.31.9,3.57,3.57,0,0,0,.82,1.16,1.81,1.81,0,0,0,1.14.51,1.85,1.85,0,0,0,.46-.05,1.42,1.42,0,0,0,.47-.2C564.2,100.49,564.13,100.45,564.07,100.39Z"/><path class="cls-29" d="M561.59,86.9h0a6.81,6.81,0,0,0-4.33,2.49,7.62,7.62,0,0,1,2.15-2.09,4.12,4.12,0,0,1,.45-.27,8.33,8.33,0,0,1,4.64-1h0A9.24,9.24,0,0,0,561.59,86.9Z"/><path class="cls-29" d="M568.6,89.52a7.6,7.6,0,0,0-6.48-2.69,4.51,4.51,0,0,0-.53.08h0a9.24,9.24,0,0,1,2.91-.85h0a9.22,9.22,0,0,1,4.1,1.27,9.43,9.43,0,0,1,2.58,2.21C569.17,89.2,568.6,89.52,568.6,89.52Z"/><path class="cls-37" d="M567.09,86.6A9,9,0,0,0,564.5,86h0a9.24,9.24,0,0,0-2.91.85h0a4.51,4.51,0,0,1,.53-.08,7.31,7.31,0,0,1,1.79.06A4.77,4.77,0,0,1,567.09,86.6Z"/><path class="cls-29" d="M572.88,92.47a18.71,18.71,0,0,1,1,3.81,8.84,8.84,0,0,0-2.66-.47,12.17,12.17,0,0,0-2.6-6.29s.57-.32,2.58,0l.28.36A10.91,10.91,0,0,1,572.88,92.47Z"/><path class="cls-37" d="M573.19,94.46a1.81,1.81,0,0,1-2.37-.5,14,14,0,0,1,.38,1.85,8.84,8.84,0,0,1,2.66.47,17.57,17.57,0,0,0-.42-2Z"/><path class="cls-29" d="M573.86,96.28a13.55,13.55,0,0,1-.92,7.73c-1.74.07-2.17-.41-2.17-.41a16.38,16.38,0,0,0,.43-7.79A8.84,8.84,0,0,1,573.86,96.28Z"/><path class="cls-37" d="M571.15,102.19a11.13,11.13,0,0,1-.38,1.41s.43.48,2.17.41a8.59,8.59,0,0,0,.48-1.22A4.26,4.26,0,0,1,571.15,102.19Z"/><path class="cls-29" d="M565.57,108.56a7.07,7.07,0,0,0,5.2-5s.43.48,2.17.41a8.76,8.76,0,0,1-1.21,1.88,7.66,7.66,0,0,1-1.62,1.43,5.06,5.06,0,0,1-.68.4,10.1,10.1,0,0,1-5.43,1v0a5.14,5.14,0,0,0,1.24-.06Z"/><path class="cls-35" d="M568.15,107.38a6.65,6.65,0,0,1-2.58,1.18l-.33,0a5.14,5.14,0,0,1-1.24.06v0a10.1,10.1,0,0,0,5.43-1c.2-.1.4-.22.59-.34A6.17,6.17,0,0,1,568.15,107.38Z"/><path class="cls-29" d="M574,122.68h-3.35c-.14-1.26-.27-2.49-.38-3.67h2.31C573,120.3,573.48,121.53,574,122.68Z"/><path class="cls-34" d="M570.62,122.68l-7.54,2.48-8.13-5c.19-1.29.4-2.52.62-3.68l7.51,5,7.16-2.5C570.35,120.19,570.48,121.42,570.62,122.68Z"/><path class="cls-35" d="M570.24,119l-7.16,2.5-7.51-5c-.22,1.16-.43,2.39-.62,3.68l2.19,1.34a22.78,22.78,0,0,1,.2-2.55,63.6,63.6,0,0,1,5.31,3.79,34.15,34.15,0,0,1,7.59-3.7Z"/><path class="cls-32" d="M574,122.68a63,63,0,0,0,4,7.91,24.81,24.81,0,0,0-5.33,4.7,125.16,125.16,0,0,1-2-12.61Z"/><path class="cls-32" d="M570.11,107.32c.06.27.14.54.23.83h0A36.78,36.78,0,0,0,572.55,119h-2.31c-.62-6.35-.81-11.29-.81-11.29A5.06,5.06,0,0,0,570.11,107.32Z"/><path class="cls-31" d="M572.66,135.29c-12.42.52-18.69-3.13-18.69-3.13a90.26,90.26,0,0,1,1-12l8.13,5,7.54-2.48A125.16,125.16,0,0,0,572.66,135.29Z"/><path class="cls-31" d="M564,108.69a10.1,10.1,0,0,0,5.43-1s.19,4.94.81,11.29l-7.16,2.5-7.51-5a77.74,77.74,0,0,1,2.81-11,8,8,0,0,0,5.62,3.19Z"/><path class="cls-33" d="M558.15,131.11a45.37,45.37,0,0,1-.21-9.08l-3-1.83a90.26,90.26,0,0,0-1,12s5.37,3.12,16,3.18A81.09,81.09,0,0,0,558.15,131.11Z"/><path class="cls-33" d="M558.38,105.48a77.74,77.74,0,0,0-2.81,11l2.74,1.82c.47-3.72,1.19-7.4,1.89-11.12A9.89,9.89,0,0,1,558.38,105.48Z"/><path class="cls-38" d="M610.4,19.83C611.93,21,613.23,25,613.23,25a134.2,134.2,0,0,1-4.88,15.72,16.28,16.28,0,0,0-1.87,1.23c-.37-.31-.75-.61-1.13-.88A216.77,216.77,0,0,0,610.4,19.83Z"/><path class="cls-38" d="M601.23,18.32s-1.51,9.44-2.45,20a11.75,11.75,0,0,0-3.35,0c-.94-10.58-2.45-20-2.45-20a22,22,0,0,1,8.25,0Z"/><path class="cls-38" d="M588.85,41.05c-.38.27-.75.57-1.12.88a16.4,16.4,0,0,0-1.88-1.23A135.11,135.11,0,0,1,581,25s1.29-4,2.82-5.15A216.77,216.77,0,0,0,588.85,41.05Z"/><path class="cls-31" d="M637.54,42.61c.39,1.33-.31,3.22-4,4.07a26.44,26.44,0,0,0-7.47,3.42,26.87,26.87,0,0,0-5.46-7.89h0c2.28-3.52,6.58-9.32,8.15-9.94S635.74,36.48,637.54,42.61Z"/><path class="cls-33" d="M621.41,43A15.87,15.87,0,0,1,628,37.3a6.59,6.59,0,0,1,7.32,1.1,9.69,9.69,0,0,1,1.07,1.25c-2.33-4.64-6.29-7.91-7.59-7.38-1.57.62-5.87,6.42-8.15,9.94h0C620.89,42.46,621.15,42.72,621.41,43Z"/><path class="cls-31" d="M622.74,28.82c1.1,2.51-4,11.88-4,11.88-3.63-2.32-7.24-1.75-10.35,0A134.2,134.2,0,0,0,613.23,25S621.65,26.31,622.74,28.82Z"/><path class="cls-36" d="M622.74,28.82c-1.09-2.51-9.51-3.84-9.51-3.84a134.2,134.2,0,0,1-4.88,15.72c.32-.18.65-.35,1-.5.14-.33.27-.67.41-1,.74-1.79,1.4-3.59,2.09-5.4a9.64,9.64,0,0,1,2.3-3.85c2.06-1.9,4.6-.24,4.82,2.27.23,2.75-1.38,5-2.46,7.43a9.75,9.75,0,0,1,2.22,1.06S623.84,31.33,622.74,28.82Z"/><path class="cls-31" d="M610.13,19.66a1.34,1.34,0,0,1,.27.17,216.77,216.77,0,0,1-5,21.22,15.24,15.24,0,0,0-5.81-2.59c-.25-.05-.51-.09-.76-.12.94-10.58,2.45-20,2.45-20S606.34,17.67,610.13,19.66Z"/><path class="cls-36" d="M564,108.69v0a8,8,0,0,1-5.62-3.19s-.12.31-.31.91c1.76,4.19,7.19,5.85,11.53,4.64-.12-2.06-.17-3.31-.17-3.31A10.1,10.1,0,0,1,564,108.69Z"/><path class="cls-33" d="M601.19,28.27c.33-2.71.52-6.38,2.67-8.37,1.65-1.51,4.46-1.11,6.53,0a.51.51,0,0,0,0-.09,1.34,1.34,0,0,0-.27-.17c-3.79-2-8.9-1.34-8.9-1.34s-1.51,9.44-2.45,20c.25,0,.51.07.76.12l.23.06C600.07,35.08,600.77,31.72,601.19,28.27Z"/><path class="cls-31" d="M595.43,38.34c-.26,0-.51.07-.76.12a15.34,15.34,0,0,0-5.82,2.59,216.77,216.77,0,0,1-5.05-21.22,1.34,1.34,0,0,1,.27-.17c3.79-2,8.91-1.34,8.91-1.34S594.49,27.76,595.43,38.34Z"/><path class="cls-33" d="M589.28,34.59a67.89,67.89,0,0,1-1-6.93c-.17-2-.58-4.4,0-6.39a4.66,4.66,0,0,1,2.35-3,15,15,0,0,0-6.58,1.43,1.34,1.34,0,0,0-.27.17,216.77,216.77,0,0,0,5.05,21.22A15.52,15.52,0,0,1,590.56,40Q589.79,37.32,589.28,34.59Z"/><path class="cls-31" d="M581,25a135.11,135.11,0,0,0,4.87,15.72c-3.11-1.75-6.71-2.32-10.34,0,0,0-5.14-9.37-4-11.88S581,25,581,25Z"/><path class="cls-33" d="M576.25,36.29c-1-2.46-2-5.34-.44-7.78,1.15-1.77,3.4-2.34,5.24-3.22,0-.2-.07-.31-.07-.31s-8.42,1.33-9.52,3.84,4,11.88,4,11.88a9.81,9.81,0,0,1,2.17-1.05C577.19,38.54,576.71,37.42,576.25,36.29Z"/><path class="cls-31" d="M565.43,32.27c1.57.62,5.88,6.42,8.15,9.94a26.68,26.68,0,0,0-5.45,7.89,26.44,26.44,0,0,0-7.47-3.42c-3.69-.85-4.39-2.74-4-4.07C558.46,36.48,563.87,31.64,565.43,32.27Z"/><path class="cls-33" d="M565.76,46.71c-2.66-2.25-5.27-5-4.42-8.74a11.43,11.43,0,0,1,2.95-5.55c-2.21,1-6.14,5.14-7.63,10.19-.39,1.33.31,3.22,4,4.07a26.44,26.44,0,0,1,7.47,3.42c.17-.36.35-.71.53-1C567.68,48.3,566.73,47.51,565.76,46.71Z"/><path class="cls-39" d="M608.35,40.7c3.11-1.75,6.72-2.32,10.35,0a13.33,13.33,0,0,1,1.92,1.51h0a26.87,26.87,0,0,1,5.46,7.89c.14.28.28.58.42.88h0a4.05,4.05,0,0,0-2.43,1,18.2,18.2,0,0,0-2.05-.57c-2-4.76-8.53-10.27-13.2-7.1a20.56,20.56,0,0,0-2.34-2.33A16.28,16.28,0,0,1,608.35,40.7Z"/><path class="cls-39" d="M585.85,40.7a16.4,16.4,0,0,1,1.88,1.23,19.78,19.78,0,0,0-2.34,2.33c-4.67-3.17-11.18,2.34-13.2,7.1a18.34,18.34,0,0,0-2.06.57,4,4,0,0,0-2.42-1h0c.14-.3.27-.6.42-.88a26.68,26.68,0,0,1,5.45-7.89,12.86,12.86,0,0,1,1.93-1.51C579.14,38.38,582.74,39,585.85,40.7Z"/><path class="cls-34" d="M622,51.36a15,15,0,0,0-8.79.57,25.59,25.59,0,0,0-4.41-7.67C613.49,41.09,620,46.6,622,51.36Z"/><path class="cls-35" d="M619.4,50c.13.34.23.69.33,1a18.58,18.58,0,0,1,2.29.33c-1.91-4.5-7.84-9.67-12.43-7.54A9.88,9.88,0,0,1,619.4,50Z"/><path class="cls-37" d="M614,48.36a40.13,40.13,0,0,1-4.35-3.12,26.06,26.06,0,0,1,3.63,6.69,15,15,0,0,1,8.79-.57,13.9,13.9,0,0,0-1.06-2C618.49,49.76,616.13,49.73,614,48.36Z"/><path class="cls-34" d="M572.19,51.36c2-4.76,8.53-10.27,13.2-7.1A25.59,25.59,0,0,0,581,51.93,15,15,0,0,0,572.19,51.36Z"/><path class="cls-37" d="M581.6,49.27a.93.93,0,0,1-.65.65A24.76,24.76,0,0,0,576.87,51a12.5,12.5,0,0,1,4.11.9,27,27,0,0,1,3-5.78A6.52,6.52,0,0,0,581.6,49.27Z"/><path class="cls-35" d="M577.91,47c1.69-1.34,4.34-2.71,6.46-1.47.33-.45.67-.89,1-1.3-4.67-3.17-11.18,2.34-13.2,7.1a19.41,19.41,0,0,1,2.1-.31A14.19,14.19,0,0,1,577.91,47Z"/><path class="cls-39" d="M634.35,87c-.06-5.42-1.82-11.3-7-17.41s-7.18-14.73-3.27-17.7a4.05,4.05,0,0,1,2.43-1c1.78-.09,4.36,1,7.12,6,3.94,7.25,2.87,16.37,2.17,19.61h0a20,20,0,0,1-1,10.68Q634.58,87.16,634.35,87Zm-.73-16.59a22.47,22.47,0,0,1,1.69,4.16c1.16-11.56-5-19.94-7.66-17.2S631.28,66,633.62,70.45Z"/><path class="cls-33" d="M636,82.18a24.63,24.63,0,0,0-2.79-9.84,31.73,31.73,0,0,0-3-4.69c-.71-.93-1.54-1.78-2.19-2.75-1.14-1.69-5-7.82-1.64-9.17,1.77-.71,4,.5,5.09,1.82a18.93,18.93,0,0,1,3.38,6.38c.48,1.39.88,2.8,1.22,4.22a33.29,33.29,0,0,0-.58-4.21,16.87,16.87,0,0,0-4.09-8.55c-1.18-1.2-2.73-2.68-4.47-2.92a4.28,4.28,0,0,0-3.75,1.74c-1.86,5.37,2.59,11.06,5.34,15.4,3.2,5.09,6.13,10.32,6.72,16.33a19.87,19.87,0,0,0,.73-3.57Z"/><path class="cls-33" d="M635.44,72.52c0,.36,0,.73-.05,1.1s.19.46.28.7C635.61,73.72,635.53,73.12,635.44,72.52Z"/><path class="cls-38" d="M627.65,57.41c2.61-2.74,8.82,5.64,7.66,17.2a22.47,22.47,0,0,0-1.69-4.16C631.28,66,625,60.15,627.65,57.41Z"/><path class="cls-40" d="M627.65,57.41c-1,1.06-.7,2.59.2,4.32a1.29,1.29,0,0,1,.48-.48c1.56-.63,3.13.62,3.76,1.88a30.08,30.08,0,0,1,3,10.67c.09.27.18.53.26.81C636.47,63.05,630.26,54.67,627.65,57.41Z"/><path class="cls-38" d="M599.54,38.47a5.38,5.38,0,0,0-2.44,4.14,5.35,5.35,0,0,0-2.43-4.14h0c.25-.05.5-.09.76-.12a11.75,11.75,0,0,1,3.35,0c.25,0,.51.07.76.12Z"/><path class="cls-38" d="M598.8,47.57c-.07.7-1.2,11.56,1.07,16.53C598.93,64,598,64,597.1,64s-1.83.05-2.77.14c2.28-5,1.15-15.87,1.08-16.53a7,7,0,0,0,1.69-5A6.91,6.91,0,0,0,598.8,47.57Z"/><path class="cls-38" d="M566.56,57.41c2.61,2.74-3.63,8.62-6,13a21.8,21.8,0,0,0-1.69,4.16C557.74,63.05,564,54.67,566.56,57.41Z"/><path class="cls-40" d="M566.56,57.41c-2.61-2.74-8.82,5.64-7.66,17.2.19-.64.41-1.26.64-1.86.61-5.3,3-12.28,7.43-12.48A2.72,2.72,0,0,0,566.56,57.41Z"/><path class="cls-39" d="M558.9,74.61a21.8,21.8,0,0,1,1.69-4.16c2.34-4.42,8.58-10.3,6-13S557.74,63.05,558.9,74.61Zm1,12.43a4.12,4.12,0,0,0-.45.27,19.94,19.94,0,0,1-1-10.68h0c-.7-3.24-1.78-12.36,2.17-19.61,2.75-5.06,5.33-6.13,7.12-6a4,4,0,0,1,2.42,1c3.91,3,1.94,11.59-3.26,17.7S559.92,81.62,559.86,87Z"/><path class="cls-33" d="M568.16,55c-1.42-2.12-4-2-5.88-.67A21.51,21.51,0,0,0,560.59,57,23.83,23.83,0,0,0,558,65.21a18,18,0,0,1,1.55-3.41c1.21-2,3.54-6.1,6.39-5.66,3.74.56,1.65,5.43.61,7.31a36.27,36.27,0,0,1-2.84,4.4c-1.56,2-3.49,3.74-4.08,6.33a.78.78,0,0,1-.3.49,1,1,0,0,1-1.19.57c.08.54.17,1,.25,1.39h0a19.46,19.46,0,0,0-.11,6.44A37.88,37.88,0,0,1,564.65,69C567.27,65.22,571.32,59.71,568.16,55Z"/><path class="cls-31" d="M598.8,47.57a6.91,6.91,0,0,1-1.7-5,5.38,5.38,0,0,1,2.44-4.14h0a15.24,15.24,0,0,1,5.81,2.59c.38.27.76.57,1.13.88a20.56,20.56,0,0,1,2.34,2.33,25.59,25.59,0,0,1,4.41,7.67,15,15,0,0,1,8.79-.57,18.2,18.2,0,0,1,2.05.57c-3.91,3-1.93,11.59,3.27,17.7s6.95,12,7,17.41a8.37,8.37,0,0,0-4.64-1,9.18,9.18,0,0,0-4.1,1.27,27.21,27.21,0,0,0-12.38-18.64,30.28,30.28,0,0,0-6-2.92,32.36,32.36,0,0,0-4.57-1.25c-.94-.18-1.86-.31-2.78-.4C597.6,59.13,598.73,48.27,598.8,47.57Z"/><path class="cls-36" d="M624.07,51.93c-.57-.19-1.12-.35-1.66-.48a9.88,9.88,0,0,0-2.94,10.41c1.88,5.54,6.09,9.84,8.89,14.89a36.44,36.44,0,0,1,3.71,9.45,8,8,0,0,1,2.28.84c-.06-5.42-1.82-11.3-7-17.41S620.16,54.9,624.07,51.93Z"/><path class="cls-33" d="M602.48,47.66c-2.66-.86-4.72-4.74-4.53-7.66a6.09,6.09,0,0,0-.85,2.61,6.91,6.91,0,0,0,1.7,5c-.07.7-1.2,11.56,1.07,16.53l1.2.15C600.39,58.69,601.5,53.17,602.48,47.66Z"/><path class="cls-38" d="M634.26,85.27a17.54,17.54,0,0,0-5.38-1.39c-4.31-12-16.5-20.33-29.28-20.46a6.87,6.87,0,0,0,.27.68c.92.09,1.84.22,2.78.4a32.36,32.36,0,0,1,4.57,1.25,30.28,30.28,0,0,1,6,2.92,27.21,27.21,0,0,1,12.38,18.64,9.42,9.42,0,0,1,4-1.26h.11a8.37,8.37,0,0,1,4.64,1Q634.34,86.16,634.26,85.27Z"/><path class="cls-31" d="M564.5,86a8.33,8.33,0,0,0-4.64,1c.06-5.42,1.81-11.3,7-17.41s7.17-14.73,3.26-17.7a18.34,18.34,0,0,1,2.06-.57,15,15,0,0,1,8.79.57,25.59,25.59,0,0,1,4.41-7.67,19.78,19.78,0,0,1,2.34-2.33c.37-.31.74-.61,1.12-.88a15.34,15.34,0,0,1,5.82-2.59h0a5.35,5.35,0,0,1,2.43,4.14,7,7,0,0,1-1.69,5c.07.66,1.2,11.55-1.08,16.53-.91.09-1.84.22-2.77.4A32,32,0,0,0,587,65.75a30.28,30.28,0,0,0-6,2.92A27.21,27.21,0,0,0,568.6,87.31,9.22,9.22,0,0,0,564.5,86Z"/><path class="cls-33" d="M580.85,51.87a3.37,3.37,0,0,0,.9,2c1.25,1.18,2.84-3.71,3.24-4.53,1.79-3.74,4.65-7.44,8.81-8.67a8.64,8.64,0,0,1,2.64-.38,4.4,4.4,0,0,0-1.77-1.85h0a15.34,15.34,0,0,0-5.82,2.59c-.38.27-.75.57-1.12.88a19.78,19.78,0,0,0-2.34,2.33A25.59,25.59,0,0,0,581,51.93Z"/><path class="cls-36" d="M563.85,78.53c2.3-5.37,7.61-8.84,9.38-14.45,1.45-4.61,1.32-9.78-3-12.17l-.06,0c3.91,3,1.94,11.59-3.26,17.7s-7,12-7,17.41a8,8,0,0,1,2.27-.84A21.87,21.87,0,0,1,563.85,78.53Z"/><path class="cls-33" d="M589.25,59.36c-6.37-2.87-9.52,4.22-5.75,3.47C583.92,62.74,594.17,61.59,589.25,59.36Z"/><path class="cls-33" d="M579.65,62.13c-1.92.68-9.21,3.95-6.79,6.62s7.83-3.92,6.79-6.62C579.57,62.16,579.68,62.23,579.65,62.13Z"/><path class="cls-33" d="M570,73.48c.71-1,2-2.89.86-3.32-.21-.08-7.85,6.8-5.17,7.37a7.44,7.44,0,0,0,4.31-4Z"/><path class="cls-33" d="M604,59.36c6.36-2.87,9.52,4.22,5.75,3.47C609.36,62.74,599.1,61.59,604,59.36Z"/><path class="cls-33" d="M614.39,61.64c1.92.68,9.21,4,6.79,6.62s-7.83-3.92-6.79-6.62C614.47,61.67,614.35,61.74,614.39,61.64Z"/><path class="cls-33" d="M623.82,73.48c-.71-1-2-2.89-.86-3.32.21-.08,7.85,6.8,5.17,7.37a7.44,7.44,0,0,1-4.31-4Z"/><path class="cls-38" d="M589.14,64.46a31.38,31.38,0,0,0-13.89,7.3,41.31,41.31,0,0,0-5.2,6.23,23.5,23.5,0,0,0-3,5.3s-5.47,1.2-7.09,2.11c0,.55-.07,1.1-.07,1.64a8.33,8.33,0,0,1,4.64-1,9.22,9.22,0,0,1,4.1,1.27A27.21,27.21,0,0,1,581,68.67a30.28,30.28,0,0,1,6-2.92,32,32,0,0,1,4.57-1.25c.93-.18,1.86-.31,2.77-.4,0-.1.09-.21.14-.31A21.27,21.27,0,0,0,589.14,64.46Z"/><path class="cls-34" d="M564.5,95.69a2.52,2.52,0,0,0-.78-.75,14.74,14.74,0,0,1,4.88-5.42,12.17,12.17,0,0,1,2.6,6.29,23.34,23.34,0,0,0-6.2.93A4.07,4.07,0,0,0,564.5,95.69Z"/><path class="cls-37" d="M569.74,94.77a10.93,10.93,0,0,0-4.92,1.51,3.66,3.66,0,0,1,.18.46,23.34,23.34,0,0,1,6.2-.93c-.05-.36-.11-.72-.19-1.06A9,9,0,0,0,569.74,94.77Z"/><path class="cls-35" d="M563.72,94.94a1.5,1.5,0,0,1,.23.15c1-1.89,2.76-4.64,4.54-3.45A6.47,6.47,0,0,1,571,94.48a11.25,11.25,0,0,0-2.35-5A14.74,14.74,0,0,0,563.72,94.94Z"/><path class="cls-34" d="M565.23,98a4.69,4.69,0,0,0-.23-1.23,23.34,23.34,0,0,1,6.2-.93,16.38,16.38,0,0,1-.43,7.79,55.17,55.17,0,0,1-5.62-4.48A4.34,4.34,0,0,0,565.23,98Z"/><path class="cls-37" d="M565.15,99.12a55.17,55.17,0,0,0,5.62,4.48,10.77,10.77,0,0,0,.46-1.8,12.25,12.25,0,0,1-6-2.9A1.43,1.43,0,0,1,565.15,99.12Z"/><path class="cls-35" d="M571.2,95.81a24.3,24.3,0,0,0-5.87.83c2.08,0,4.47-.13,5,1.58a8.25,8.25,0,0,1-.63,4.68c.36.26.71.5,1,.7A16.38,16.38,0,0,0,571.2,95.81Z"/><path class="cls-34" d="M564.5,100.36a2.29,2.29,0,0,0,.65-1.24,55.17,55.17,0,0,0,5.62,4.48,7.07,7.07,0,0,1-5.2,5l-.33,0a34.17,34.17,0,0,1-1.91-7.82,1.85,1.85,0,0,0,.46-.05A1.53,1.53,0,0,0,564.5,100.36Z"/><path class="cls-35" d="M566,106.36c-1.54.51-1.82-3-2.21-5.61a2.25,2.25,0,0,1-.44,0,34.17,34.17,0,0,0,1.91,7.82l.33,0a7.07,7.07,0,0,0,5.2-5c-.3-.19-.63-.42-1-.66A7.88,7.88,0,0,1,566,106.36Z"/><path class="cls-34" d="M562.19,100.28a1.81,1.81,0,0,0,1.14.51,34.17,34.17,0,0,0,1.91,7.82,5.14,5.14,0,0,1-1.24.06,8,8,0,0,1-5.62-3.19c-.2-.25-.39-.51-.58-.78h0a18.35,18.35,0,0,1,3.57-5.58A3.57,3.57,0,0,0,562.19,100.28Z"/><path class="cls-37" d="M565.24,108.61a34.17,34.17,0,0,1-1.91-7.82,1.59,1.59,0,0,1-.58-.14,15,15,0,0,0,.66,8,5.9,5.9,0,0,0,.59.06A5.14,5.14,0,0,0,565.24,108.61Z"/><path class="cls-35" d="M560,105.42c-1.87-1.87.36-4,1.45-6.1l-.11-.2a18.35,18.35,0,0,0-3.57,5.58h0c.19.27.38.53.58.78a8,8,0,0,0,5.42,3.17A15.91,15.91,0,0,1,560,105.42Z"/><path class="cls-34" d="M561.06,98.22a5.63,5.63,0,0,0,.31.9,18.35,18.35,0,0,0-3.57,5.58,15.59,15.59,0,0,1-2.26-5.41,15.18,15.18,0,0,1-.26-1.55c2.22-.16,5.64-.37,5.64-.37h0A5,5,0,0,0,561.06,98.22Z"/><path class="cls-37" d="M557.14,103.63c.21.37.43.73.66,1.07a18.35,18.35,0,0,1,3.57-5.58,5.31,5.31,0,0,1-.22-.6c-.17.1-.33.21-.49.32A18.21,18.21,0,0,0,557.14,103.63Z"/><path class="cls-35" d="M556.9,99.16c.49-1.24,2.36-1.5,4.06-1.56l0-.23h0s-3.42.21-5.64.37a15.18,15.18,0,0,0,.26,1.55,16.36,16.36,0,0,0,1.4,3.95A9.2,9.2,0,0,1,556.9,99.16Z"/><path class="cls-34" d="M561,96.6a3.92,3.92,0,0,0,0,.77h0s-3.42.21-5.64.37a12.67,12.67,0,0,1,.88-6.51,16.47,16.47,0,0,0,5,4.58A2.86,2.86,0,0,0,561,96.6Z"/><path class="cls-37" d="M555.23,97.14c0,.2,0,.4,0,.6,2.22-.16,5.64-.37,5.64-.37h0c0-.11,0-.21,0-.32A13.33,13.33,0,0,0,555.23,97.14Z"/><path class="cls-35" d="M561.1,96s0-.1,0-.15a16.47,16.47,0,0,1-5-4.58,12.67,12.67,0,0,0-.88,6.51h.1c.23-1.54.58-3.07.89-4.53C558.09,93.81,559.32,95.29,561.1,96Z"/><path class="cls-34" d="M562.22,94.79a1.54,1.54,0,0,0-.62.36,1.8,1.8,0,0,0-.45.66,16.47,16.47,0,0,1-5-4.58h0a8.41,8.41,0,0,1,1.07-1.78l0,0a6.81,6.81,0,0,1,4.33-2.49C560.85,89.7,562.22,94.79,562.22,94.79Z"/><path class="cls-37" d="M561.53,95.23a.5.5,0,0,1,.07-.08,1.54,1.54,0,0,1,.62-.36s-1.37-5.09-.63-7.88a7.84,7.84,0,0,0-1,.24A10.67,10.67,0,0,0,561.53,95.23Z"/><path class="cls-35" d="M558.15,89.76a8.2,8.2,0,0,1,3.43-2.8s0,0,0,0a6.81,6.81,0,0,0-4.33,2.49l0,0a8.41,8.41,0,0,0-1.07,1.78h0a16.47,16.47,0,0,0,5,4.58,1.91,1.91,0,0,1,.33-.52C559.83,93.77,557.29,91.76,558.15,89.76Z"/><path class="cls-34" d="M562.22,94.79s-1.37-5.09-.63-7.88a4.51,4.51,0,0,1,.53-.08,7.6,7.6,0,0,1,6.48,2.69,14.74,14.74,0,0,0-4.88,5.42,1.63,1.63,0,0,0-.79-.24A1.8,1.8,0,0,0,562.22,94.79Z"/><path class="cls-37" d="M563.29,94.76a1.63,1.63,0,0,1,.43.18,14.74,14.74,0,0,1,4.88-5.42q-.32-.36-.63-.66C565.46,89.44,564,92.05,563.29,94.76Z"/><path class="cls-35" d="M562.12,86.83a4.51,4.51,0,0,0-.53.08c-.74,2.79.63,7.88.63,7.88a2.15,2.15,0,0,1,.47-.09c-.78-2.1-.73-4.39.16-5.57,1.39-1.81,3.27-1.51,5.08-.3A7.54,7.54,0,0,0,562.12,86.83Z"/><path class="cls-37" d="M566.38,97.37c-.81-4.68-4.16-2.58-4.16-2.58a1.8,1.8,0,0,1,.71-.09,1.63,1.63,0,0,1,.79.24,2.52,2.52,0,0,1,.78.75,4.07,4.07,0,0,1,.5,1,4.69,4.69,0,0,1,.23,1.23,4.34,4.34,0,0,1-.08,1.15,2.29,2.29,0,0,1-.65,1.24,1.53,1.53,0,0,1-.71.38,1.85,1.85,0,0,1-.46.05S567.08,101.4,566.38,97.37Z"/><ellipse class="cls-41" cx="597.74" cy="171.29" rx="6.22" ry="6.17"/><path class="cls-42" d="M591.52,169.31a6.22,6.22,0,1,0,6.22-6.22A6.22,6.22,0,0,0,591.52,169.31Z"/><g class="cls-43"><path class="cls-41" d="M597.51,166.38l-.24-.17c-10-5.65-14.68-14.32-15.42-25.66l2.27,1c.72,10.92,4,17.64,13.5,23.71,11.23-5.34,13.73-12.56,15.85-23.67l2-.58c-2.31,12.11-6.45,20-17.74,25.26Z"/><path class="cls-42" d="M597.51,164.35l-.24-.17c-10-5.69-14.68-14.42-15.42-25.85l2.27,1c.72,11,4,17.78,13.5,23.9,11.23-5.38,13.73-12.66,15.85-23.86l2-.58c-2.31,12.21-6.45,20.15-17.74,25.46Z"/></g><path class="cls-44" d="M593.36,169.31a4.38,4.38,0,1,0,4.38-4.38A4.38,4.38,0,0,0,593.36,169.31Z"/><path class="cls-45" d="M596.31,166.71a1.43,1.43,0,1,0,1.43-1.43A1.43,1.43,0,0,0,596.31,166.71Z"/><path class="cls-45" d="M596.31,171.49a1.43,1.43,0,1,0,1.43-1.43A1.43,1.43,0,0,0,596.31,171.49Z"/><circle class="cls-45" cx="600.13" cy="169.1" r="1.43"/><circle class="cls-45" cx="595.35" cy="169.1" r="1.43"/><path class="cls-46" d="M110.21,106.64s2.17,44.09,58.09,43.55c0,0,25,0,21.44-21.77,0,0-48.84-18.23-38.18,48.5"/></g></g></g></svg>