<svg xmlns="http://www.w3.org/2000/svg" viewBox="0 0 120 120"><defs><style>.cls-1{fill:#007493;}.cls-2{fill:#fff;}</style></defs><g id="Layer_2" data-name="Layer 2"><g id="Layer_3" data-name="Layer 3"><circle id="Oval" class="cls-1" cx="60" cy="60" r="60"/><path class="cls-2" d="M55.85,45.57a1,1,0,0,1,1,1h2a3,3,0,0,0-5.92,0h2a1,1,0,0,1,1-1Z"/><path class="cls-2" d="M63.75,45.57a1,1,0,0,1,1,1h2a3,3,0,0,0-5.92,0h2a1,1,0,0,1,1-1Z"/><path class="cls-2" d="M64.74,49.51v-1H54.86v1a4.94,4.94,0,0,0,9.88,0ZM57,50.5h5.58a3,3,0,0,1-5.58,0Z"/><path class="cls-2" d="M86.67,35.69a4.73,4.73,0,0,0-4.67,4l-.35,2.12a3,3,0,0,0-2.1,2.82v2.31A4.87,4.87,0,0,0,81,50.38l.53.53v5.28a4.22,4.22,0,0,1-4.19,4.19H65.55l-.65-3.25a11,11,0,0,0,5-5.64h.75a3.95,3.95,0,1,0,0-7.9V41.12a6.42,6.42,0,0,0-2.47-12.34H56.53A11.55,11.55,0,0,0,45,40.32a12.05,12.05,0,0,0,.34,2.8l.51,2A3.86,3.86,0,0,0,45,47.54a4,4,0,0,0,3.95,4h.75a10.94,10.94,0,0,0,5,5.64L54,60.52,48,61.74a9.85,9.85,0,0,0-7.9,9.64v12.7A5.93,5.93,0,0,0,46,90H73.63a2,2,0,0,0,2-2V70.25h2.16A13.65,13.65,0,0,0,91.4,56.61V40.42a4.73,4.73,0,0,0-4.73-4.73Zm-5.14,8.89a1,1,0,0,1,1-1h2a1,1,0,0,1,0,2h-1v2h1a3,3,0,1,0,0-5.92h-.81L84,40a2.75,2.75,0,0,1,5.47.45v9.09h-6.5L82.39,49a3,3,0,0,1-.86-2.1ZM66,62.35l-1.64,2.72L62,64.15l3-1.8Zm6.68-14.81a2,2,0,0,1-2,2h-.19a10.61,10.61,0,0,0,.19-2v-2a2,2,0,0,1,2,2Zm-23.7,2a2,2,0,1,1,0-3.94v2a10.61,10.61,0,0,0,.19,2Zm0-7.86v1.94a3.94,3.94,0,0,0-1.38.26l-.31-1.21a9.55,9.55,0,0,1,9.28-11.89H68.19a4.45,4.45,0,1,1,0,8.89h-1a2.45,2.45,0,0,1-.77-4.78l.61-.21-.63-1.87-.61.2a4.43,4.43,0,0,0-3,4.2c0,.13,0,.25,0,.38a19.92,19.92,0,0,1-5.31-1.29l-.38-.15a5.84,5.84,0,0,0-2.21-.43,6,6,0,0,0-6,6Zm2,5.89V41.65a4,4,0,0,1,4-4,3.92,3.92,0,0,1,1.47.28l.38.15a21.67,21.67,0,0,0,6.73,1.49,4.45,4.45,0,0,0,3.71,2h1c.17,0,.33,0,.5,0v5.95a8.89,8.89,0,0,1-17.78,0ZM59.8,58.4A10.81,10.81,0,0,0,63,57.91l.59,3-3.83,2.3L56,60.88l.59-3a10.86,10.86,0,0,0,3.24.49Zm-5.12,4,2.91,1.74-2.32.93L53.73,62.6ZM51.9,88v-2H73.63v2Zm21.73-4H51.9V70.25H73.63ZM86.54,64.29a11.69,11.69,0,0,1-8.78,4H51.9a2,2,0,0,0-2,2V82.1H46v2h4v4H46a4,4,0,0,1-3.95-4V71.38a7.84,7.84,0,0,1,6.31-7.7L51.66,63l2.8,4.52,5.25-2.1.09,0,.09,0,5.26,2.1,3.11-5.18h9.08a6.18,6.18,0,0,0,2.76-.65,6.12,6.12,0,0,0,3.4-5.51v-4.7h5.92v5.12a11.64,11.64,0,0,1-2.88,7.68Z"/><path class="cls-2" d="M62.76,80.13a3,3,0,1,0-3-3,3,3,0,0,0,3,3Zm0-3.95a1,1,0,1,1-1,1,1,1,0,0,1,1-1Z"/><path class="cls-2" d="M40.89,59.23a6.91,6.91,0,1,0-7.6,0l.7,3.51a2,2,0,0,0,1.94,1.59h2.33a2,2,0,0,0,1.93-1.59Zm-8.74-5.77a4.94,4.94,0,1,1,5.93,4.84v-2a3,3,0,1,0-2,0v2a5,5,0,0,1-4-4.84Zm4,0a1,1,0,1,1,1,1,1,1,0,0,1-1-1Zm-.17,8.89-.44-2.17a6.5,6.5,0,0,0,3.2,0l-.43,2.17Z"/><rect class="cls-2" x="36.1" y="40.63" width="1.97" height="3.95"/><path class="cls-2" d="M31.27,42l1.83-.75,1.51,3.65-1.83.75Z"/><path class="cls-2" d="M39.58,44.88l1.52-3.65,1.82.75-1.51,3.65Z"/></g></g></svg>