<svg xmlns="http://www.w3.org/2000/svg" viewBox="0 0 120 120"><defs><style>.cls-1{fill:#6917f1;}.cls-2{fill:#fff;}</style></defs><g id="Layer_2" data-name="Layer 2"><g id="Layer_3" data-name="Layer 3"><circle id="Oval" class="cls-1" cx="60" cy="60" r="60"/><path class="cls-2" d="M58.83,72.68a1.31,1.31,0,0,0-.93.39,1.33,1.33,0,0,0,0,1.88,1.32,1.32,0,0,0,1.87,0,1.33,1.33,0,0,0,0-1.88,1.32,1.32,0,0,0-.94-.39Z"/><path class="cls-2" d="M81.29,36.43a1.32,1.32,0,0,0,0-1.87,1.33,1.33,0,0,0-1.88,0,1.32,1.32,0,0,0,0,1.87,1.33,1.33,0,0,0,1.88,0Z"/><path class="cls-2" d="M32.81,36.82a1.29,1.29,0,0,0,.93-.39,1.32,1.32,0,0,0,0-1.87,1.29,1.29,0,0,0-.93-.39,1.33,1.33,0,1,0,0,2.65Z"/><path class="cls-2" d="M31.87,67.76A1.33,1.33,0,0,0,32.81,70a1.29,1.29,0,0,0,.93-.39,1.32,1.32,0,0,0,0-1.87,1.29,1.29,0,0,0-.93-.39,1.32,1.32,0,0,0-.94.39Z"/><path class="cls-2" d="M87,62.71V30.18a1.33,1.33,0,0,0-1.33-1.32H27.49a1.32,1.32,0,0,0-1.32,1.32V74a1.33,1.33,0,0,0,1.32,1.33h26a1.33,1.33,0,0,0,0-2.66H28.82V31.51H84.33V61.33a15,15,0,0,0-2.65-.81V41.34A1.34,1.34,0,0,0,80.35,40a4.52,4.52,0,0,1-4.52-4.51,1.32,1.32,0,0,0-1.33-1.33H38.65a1.33,1.33,0,0,0-1.33,1.33A4.51,4.51,0,0,1,32.81,40a1.33,1.33,0,0,0-1.33,1.33V62.85a1.32,1.32,0,0,0,1.33,1.33,4.52,4.52,0,0,1,4.51,4.52A1.33,1.33,0,0,0,38.65,70H64A15.68,15.68,0,0,0,78.47,91.54h0A15.67,15.67,0,0,0,87,62.71ZM39.85,67.37a7.19,7.19,0,0,0-5.72-5.72V42.54a7.19,7.19,0,0,0,5.72-5.72H73.3A7.19,7.19,0,0,0,79,42.54V60.21h-.53a15.67,15.67,0,0,0-13.16,7.17Zm40.89,7a4.48,4.48,0,0,0,.64-.05v1.62a2.9,2.9,0,1,1-5.79,0V74.37Zm6,11.55a12.92,12.92,0,0,1-6.27,2.81L83,82.32l2.29.5a1.91,1.91,0,0,1,1.5,1.86Zm-9.82-4.65a5.78,5.78,0,0,0,1.57.22A5.28,5.28,0,0,0,80,81.27a2.6,2.6,0,0,0,.36.3l-1.92,5-1.92-5a2.6,2.6,0,0,0,.36-.3ZM82,70.42a1.3,1.3,0,0,1-1.29,1.3H75.59v-.63A2.14,2.14,0,0,1,77.73,69H82Zm-8,11.9,2.48,6.41a12.91,12.91,0,0,1-6.24-2.81V84.68a1.92,1.92,0,0,1,1.49-1.86Zm15.18,1a4.6,4.6,0,0,0-3.37-3.06l-3.1-.68A5.53,5.53,0,0,0,84,75.94V72.59a4,4,0,0,0,.65-2.17V67.63a1.33,1.33,0,0,0-1.33-1.33H77.73a4.8,4.8,0,0,0-4.79,4.79v2a.61.61,0,0,0,0,.14.66.66,0,0,0,0,.14v2.62a5.5,5.5,0,0,0,1.33,3.6l-3.11.69a4.59,4.59,0,0,0-3.36,3.06,13,13,0,1,1,21.38,0Z"/><path class="cls-2" d="M43.13,48.22a1.33,1.33,0,0,0,1.23.82H68.79a1.33,1.33,0,0,0,.95-2.26l-2.25-2.25,2.25-2.25A1.33,1.33,0,0,0,68.79,40H44.36a1.33,1.33,0,0,0-1.23.82,1.34,1.34,0,0,0,.29,1.45l2.24,2.25-2.24,2.24a1.35,1.35,0,0,0-.29,1.45Zm5.35-4.63-.92-.92h18l-.92.92a1.32,1.32,0,0,0,0,1.87l.92.93h-18l.92-.93a1.32,1.32,0,0,0,0-1.87Z"/><path class="cls-2" d="M44.36,54.35A1.33,1.33,0,0,0,45.3,54a1.32,1.32,0,0,0,0-1.87,1.33,1.33,0,0,0-1.88,0A1.32,1.32,0,0,0,43,53a1.29,1.29,0,0,0,.39.93,1.33,1.33,0,0,0,.94.39Z"/><path class="cls-2" d="M68.79,51.7H49.67a1.33,1.33,0,1,0,0,2.65H68.79a1.33,1.33,0,1,0,0-2.65Z"/><path class="cls-2" d="M53.91,57.87l-2.64,2.64-2.75-2.74a1.33,1.33,0,0,0-1.88,0L43.42,61a1.33,1.33,0,0,0,1.88,1.88l2.28-2.28,2.75,2.74a1.33,1.33,0,0,0,1.88,0l3.58-3.58a1.33,1.33,0,0,0-1.88-1.88Z"/></g></g></svg>