<svg xmlns="http://www.w3.org/2000/svg" viewBox="0 0 120 120"><defs><style>.cls-1{fill:#ffc70f;}.cls-2{fill:#fff;}</style></defs><g id="Layer_2" data-name="Layer 2"><g id="Layer_3" data-name="Layer 3"><circle id="Oval" class="cls-1" cx="60" cy="60" r="60"/><path class="cls-2" d="M35.87,75.73a1.27,1.27,0,0,1-1.27-1.27v-38a6.34,6.34,0,0,1,6.33-6.33h7.59a1.27,1.27,0,0,1,0,2.53H40.93a3.8,3.8,0,0,0-3.8,3.8v38a1.27,1.27,0,0,1-1.26,1.27Z"/><path class="cls-2" d="M51.05,80.79H40.93a6.33,6.33,0,1,1,0-12.66H77.62V64.34a1.27,1.27,0,1,1,2.53,0V69.4a1.26,1.26,0,0,1-1.26,1.27h-38a3.8,3.8,0,1,0,0,7.59H51.05a1.27,1.27,0,1,1,0,2.53Z"/><path class="cls-2" d="M78.89,80.79H63.7a1.27,1.27,0,0,1,0-2.53H77.62V69.4a1.27,1.27,0,1,1,2.53,0V79.52a1.26,1.26,0,0,1-1.26,1.27Z"/><path class="cls-2" d="M63.7,90.91a1.28,1.28,0,0,1-.79-.27L57.38,86.2l-5.54,4.43a1.27,1.27,0,0,1-2.06-1V74.46a1.27,1.27,0,0,1,2.54,0V87l4.27-3.42a1.29,1.29,0,0,1,1.58,0L62.44,87V74.46a1.27,1.27,0,0,1,2.53,0V89.65a1.28,1.28,0,0,1-.72,1.14,1.3,1.3,0,0,1-.55.12Z"/><path class="cls-2" d="M68.77,75.73H46a1.27,1.27,0,1,1,0-2.53H68.77a1.27,1.27,0,0,1,0,2.53Z"/><path class="cls-2" d="M76.81,59a20.65,20.65,0,0,1-8.6-2.33C64.54,55,62.78,55,61.62,55.08a3.37,3.37,0,0,1-2.89-.89,2.55,2.55,0,0,1-.6-2.46A6.11,6.11,0,0,1,59.88,49a7.57,7.57,0,0,1,5.38-2L54.78,36.51A3.69,3.69,0,0,1,60,31.29l4.36,4.36a3.71,3.71,0,0,1,4.39-1.87,3.56,3.56,0,0,1,.87-1.37,3.63,3.63,0,0,1,2.6-1.08h0a3.64,3.64,0,0,1,2.4.89,3.54,3.54,0,0,1,.69-1,3.7,3.7,0,0,1,5.22,0l6.83,6.83c4.29,4.29,3.81,10.51-1.17,15.49l-2.85,2.86A9,9,0,0,1,76.81,59ZM62.3,52.53a15.81,15.81,0,0,1,7,1.88c7.55,3.58,10.62,1.84,12.27.22l2.85-2.85h0c3-3,5.13-7.93,1.19-11.88L78.74,33a1.15,1.15,0,0,0-1.63,0,1.16,1.16,0,0,0,0,1.64l1.71,1.71a1.25,1.25,0,0,1,.37.89,1.3,1.3,0,0,1-.37.9,1.27,1.27,0,0,1-1.79,0l-4-4a1.14,1.14,0,0,0-.81-.33h0a1.16,1.16,0,0,0-.83,2l2.85,2.85a1.27,1.27,0,1,1-1.79,1.79l-4-4a1.15,1.15,0,0,0-1.63,0,1.16,1.16,0,0,0,0,1.64L69.67,41a1.27,1.27,0,1,1-1.79,1.8L58.2,33.09a1.16,1.16,0,0,0-1.64,1.63l13.1,13.09a1.27,1.27,0,0,1-1.25,2.11s-4.59-1.31-6.74.84c-1,1-1.12,1.58-1.1,1.72s.13.1,1,.07l.78,0Z"/></g></g></svg>